<?xml version="1.0" encoding="UTF-8" standalone="no"?>
<!-- Created with Inkscape (http://www.inkscape.org/) -->

<svg
   xmlns:dc="http://purl.org/dc/elements/1.1/"
   xmlns:cc="http://creativecommons.org/ns#"
   xmlns:rdf="http://www.w3.org/1999/02/22-rdf-syntax-ns#"
   xmlns:svg="http://www.w3.org/2000/svg"
   xmlns="http://www.w3.org/2000/svg"
   xmlns:sodipodi="http://sodipodi.sourceforge.net/DTD/sodipodi-0.dtd"
   xmlns:inkscape="http://www.inkscape.org/namespaces/inkscape"
   id="svg41257"
   version="1.1"
   inkscape:version="0.91 r13725"
   xml:space="preserve"
   width="1080"
   height="1620"
   viewBox="0 0 1080 1620"
   sodipodi:docname="BF1.svg"><metadata
     id="metadata41263"><rdf:RDF><cc:Work
         rdf:about=""><dc:format>image/svg+xml</dc:format><dc:type
           rdf:resource="http://purl.org/dc/dcmitype/StillImage" /><dc:title /></cc:Work></rdf:RDF></metadata><defs
     id="defs41261" /><sodipodi:namedview
     pagecolor="#ffffff"
     bordercolor="#666666"
     borderopacity="1"
     objecttolerance="10"
     gridtolerance="10"
     guidetolerance="10"
     inkscape:pageopacity="0"
     inkscape:pageshadow="2"
     inkscape:window-width="735"
     inkscape:window-height="480"
     id="namedview41259"
     showgrid="false"
     inkscape:zoom="0.14567901"
     inkscape:cx="539.99999"
     inkscape:cy="809.99999"
     inkscape:window-x="0"
     inkscape:window-y="0"
     inkscape:window-maximized="0"
     inkscape:current-layer="g41265" /><g
     id="g41265"
     inkscape:groupmode="layer"
     inkscape:label="BF1"
     transform="matrix(1.25,0,0,-1.25,0,1620)"><g
       transform="scale(1,-1)"
       style="font-variant:normal;font-weight:bold;font-size:69.31771851px;font-family:Futura;-inkscape-font-specification:Futura-Bold;writing-mode:lr-tb;fill:#000000;fill-opacity:1;fill-rule:nonzero;stroke:none"
       id="text41269"><path
         d="m 477.90518,-136.57652 2.98066,0 q 5.12951,0 7.34768,-1.31704 2.21816,-1.31704 2.21816,-4.22838 0,-2.91134 -2.21816,-4.22838 -2.21817,-1.31704 -7.34768,-1.31704 l -2.98066,0 0,11.09084 z m 0,-21.21122 2.49543,0 q 6.37723,0 6.37723,-5.0602 0,-5.06019 -6.37723,-5.06019 l -2.49543,0 0,10.12039 z m -13.58628,-20.51805 20.24078,0 q 7.20904,0 10.9522,3.46589 3.74315,3.46588 3.74315,9.98175 0,3.95111 -1.45567,6.58518 -1.38635,2.56476 -4.2977,4.36702 2.91135,0.55454 4.92156,1.73294 2.07953,1.10908 3.32725,2.77271 1.31704,1.66362 1.87158,3.74316 0.55454,2.07953 0.55454,4.43633 0,3.67384 -1.31703,6.51587 -1.24772,2.84202 -3.60453,4.78292 -2.28748,1.94089 -5.61473,2.91134 -3.32725,0.97045 -7.48631,0.97045 l -21.83509,0 0,-52.26556 z"
         style=""
         id="path46295" /><path
         d="m 519.91171,-161.60022 0,35.55999 -12.54651,0 0,-35.55999 12.54651,0 z m -13.37832,-13.65559 q 0,-1.45567 0.55454,-2.70339 0.55454,-1.31704 1.52499,-2.28749 0.97045,-0.97044 2.21817,-1.52499 1.31704,-0.55454 2.77271,-0.55454 1.45567,0 2.70339,0.55454 1.31704,0.55455 2.28748,1.52499 0.97045,0.97045 1.52499,2.28749 0.55455,1.24772 0.55455,2.70339 0,1.45567 -0.55455,2.77271 -0.55454,1.24772 -1.52499,2.21817 -0.97044,0.97044 -2.28748,1.52499 -1.24772,0.55454 -2.70339,0.55454 -1.45567,0 -2.77271,-0.55454 -1.24772,-0.55455 -2.21817,-1.52499 -0.97045,-0.97045 -1.52499,-2.21817 -0.55454,-1.31704 -0.55454,-2.77271 z"
         style=""
         id="path46297" /><path
         d="m 536.54799,-143.99352 q 0,1.73294 0.62386,3.25793 0.62386,1.45568 1.66363,2.56476 1.10908,1.10908 2.56475,1.73294 1.52499,0.62386 3.25794,0.62386 1.66362,0 3.1193,-0.62386 1.52498,-0.62386 2.56475,-1.73294 1.10908,-1.10908 1.73294,-2.56476 0.69318,-1.52499 0.69318,-3.18861 0,-1.73294 -0.69318,-3.18862 -0.62386,-1.45567 -1.73294,-2.56475 -1.10908,-1.10909 -2.63407,-1.73294 -1.45567,-0.62386 -3.04998,-0.62386 -1.66363,0 -3.1193,0.69317 -1.45567,0.62386 -2.56476,1.73295 -1.10908,1.03976 -1.80226,2.49543 -0.62386,1.45568 -0.62386,3.1193 z m 28.143,-17.6067 0,33.13387 q 0,2.98066 -0.34659,5.33746 -0.34659,2.35681 -0.97045,4.15907 -0.83181,2.28748 -2.63407,4.22838 -1.73294,2.01021 -4.22838,3.46588 -2.49544,1.45568 -5.68406,2.28749 -3.11929,0.83181 -6.79313,0.83181 -4.15906,0 -7.62495,-1.03976 -3.46589,-1.03977 -6.09996,-2.91135 -2.56476,-1.80226 -4.22838,-4.2977 -1.66363,-2.42612 -2.21817,-5.33746 l 14.14082,0 q 1.31703,3.5352 5.96132,3.5352 3.95111,0 6.03064,-2.21816 2.14885,-2.21817 2.14885,-6.16928 l 0,-3.39657 q -1.38635,1.31704 -2.70339,2.21817 -1.24772,0.83181 -2.56476,1.38635 -1.31703,0.55454 -2.7727,0.7625 -1.45568,0.27727 -3.18862,0.27727 -3.81247,0 -7.00109,-1.31704 -3.18861,-1.31704 -5.54542,-3.67384 -2.28748,-2.3568 -3.60452,-5.61473 -1.24772,-3.32725 -1.24772,-7.34768 0,-4.08975 1.38636,-7.55563 1.38635,-3.53521 3.74315,-6.09996 2.42612,-2.63408 5.68406,-4.08975 3.32725,-1.52499 7.20904,-1.52499 6.30791,0 10.60561,4.71361 l 0,-3.74316 12.54651,0 z"
         style=""
         id="path46299" /><path
         d="m 620.6304,-166.79905 -16.35898,0 0,8.73403 14.90331,0 0,11.50675 -14.90331,0 0,20.51804 -13.58627,0 0,-52.26556 29.94525,0 0,11.50674 z"
         style=""
         id="path46301" /><path
         d="m 623.74966,-161.60022 12.54651,0 0,5.82269 q 2.01021,-3.18862 4.92156,-4.85224 2.91134,-1.73294 6.79314,-1.73294 0.48522,0 1.03976,0 0.62386,0 1.38636,0.13863 l 0,11.99197 q -2.49544,-1.24772 -5.40679,-1.24772 -4.36701,0 -6.58518,2.63407 -2.14885,2.56476 -2.14885,7.55563 l 0,15.2499 -12.54651,0 0,-35.55999 z"
         style=""
         id="path46303" /><path
         d="m 665.06302,-161.60022 0,35.55999 -12.54651,0 0,-35.55999 12.54651,0 z m -13.37832,-13.65559 q 0,-1.45567 0.55454,-2.70339 0.55454,-1.31704 1.52499,-2.28749 0.97045,-0.97044 2.21817,-1.52499 1.31703,-0.55454 2.7727,-0.55454 1.45568,0 2.7034,0.55454 1.31703,0.55455 2.28748,1.52499 0.97045,0.97045 1.52499,2.28749 0.55454,1.24772 0.55454,2.70339 0,1.45567 -0.55454,2.77271 -0.55454,1.24772 -1.52499,2.21817 -0.97045,0.97044 -2.28748,1.52499 -1.24772,0.55454 -2.7034,0.55454 -1.45567,0 -2.7727,-0.55454 -1.24772,-0.55455 -2.21817,-1.52499 -0.97045,-0.97045 -1.52499,-2.21817 -0.55454,-1.31704 -0.55454,-2.77271 z"
         style=""
         id="path46305" /><path
         d="m 696.04807,-148.98439 q -0.62386,-2.63408 -2.56476,-4.22839 -1.94089,-1.5943 -4.7136,-1.5943 -2.91135,0 -4.78292,1.52499 -1.80227,1.52499 -2.28749,4.2977 l 14.34877,0 z m -14.69536,7.27836 q 0,8.11017 7.62495,8.11017 4.08975,0 6.16928,-3.32725 l 12.1306,0 q -3.67384,12.19992 -18.3692,12.19992 -4.50565,0 -8.2488,-1.31704 -3.74316,-1.38635 -6.44655,-3.88179 -2.63408,-2.49544 -4.08975,-5.96133 -1.45567,-3.46588 -1.45567,-7.76358 0,-4.43633 1.38635,-7.97154 1.38636,-3.60452 3.95111,-6.09996 2.56476,-2.49544 6.16928,-3.81247 3.67384,-1.38636 8.24881,-1.38636 4.50565,0 8.11017,1.38636 3.60452,1.31703 6.09996,3.88179 2.49544,2.56476 3.81248,6.30791 1.31703,3.67384 1.31703,8.31813 l 0,1.31704 -26.41005,0 z"
         style=""
         id="path46307" /><path
         d="m 711.29794,-161.60022 12.54651,0 0,4.50565 q 2.56476,-3.1193 5.19883,-4.15906 2.63407,-1.10908 6.16928,-1.10908 3.74315,0 6.37723,1.24771 2.70339,1.17841 4.57497,3.39657 1.52498,1.80226 2.07953,4.02043 0.55454,2.21817 0.55454,5.06019 l 0,22.59758 -12.54651,0 0,-17.95329 q 0,-2.63407 -0.4159,-4.22838 -0.34659,-1.66362 -1.31704,-2.63407 -0.83181,-0.83182 -1.87158,-1.1784 -1.03977,-0.34659 -2.21817,-0.34659 -3.18861,0 -4.92156,1.94089 -1.66362,1.87158 -1.66362,5.40679 l 0,18.99305 -12.54651,0 0,-35.55999 z"
         style=""
         id="path46309" /><path
         d="m 765.43508,-143.9242 q 0,1.73294 0.62386,3.25793 0.62386,1.45567 1.66362,2.56476 1.10909,1.10908 2.56476,1.73294 1.52499,0.62386 3.25793,0.62386 1.66363,0 3.1193,-0.62386 1.52499,-0.62386 2.56476,-1.73294 1.10908,-1.10909 1.73294,-2.56476 0.69318,-1.45567 0.69318,-3.1193 0,-1.66362 -0.69318,-3.11929 -0.62386,-1.52499 -1.73294,-2.63408 -1.03977,-1.10908 -2.56476,-1.73294 -1.45567,-0.62386 -3.1193,-0.62386 -1.66362,0 -3.18861,0.62386 -1.45567,0.62386 -2.56476,1.73294 -1.03976,1.10909 -1.73294,2.56476 -0.62386,1.38635 -0.62386,3.04998 z m 15.80444,-39.64974 12.61582,0 0,57.53371 -12.61582,0 0,-3.95111 q -4.02043,5.06019 -10.88288,5.06019 -3.88179,0 -7.13973,-1.45567 -3.25793,-1.45567 -5.68405,-4.02043 -2.42612,-2.56475 -3.81247,-6.03064 -1.31704,-3.46588 -1.31704,-7.48631 0,-3.81248 1.24772,-7.20904 1.31703,-3.46589 3.67384,-6.03065 2.3568,-2.56475 5.61473,-4.02042 3.32725,-1.52499 7.27836,-1.52499 6.6545,0 11.02152,4.64428 l 0,-25.50892 z"
         style=""
         id="path46311" /></g><path
       d="m 506.938,1212.176 44.328,-0.106 -69.559,-127.32 44.703,4.512 4.735,16.441 18.968,1.59 3.532,21.691 32.312,-2.64 32.656,75.328 34.59,-2.449 -20.371,-103.336 c 0,0 10.805,0.902 28.293,-4.071 l -0.996,43.039 3.793,0.317 2.379,-44.942 c 20.344,-6.691 33.316,-16.25 33.316,-16.25 0,0 -7.965,-3.933 -17.293,-7.933 l 2,-10.16 -9.386,7.121 c -1.977,-0.778 -3.926,-1.512 -5.817,-2.176 l -6.594,-45.742 -3.922,1.199 3.797,42.43 c -0.156,-0.039 -0.316,-0.086 -0.464,-0.125 -13.469,-3.422 -41.161,-10.324 -41.161,-10.324 l 2.239,-54.067 -25.797,-2.164 -41.067,52.34 -115.019,-4.293 -90.395,-61.066 -46.601,-0.086 57.496,63.75 -96.571,3.054 2.95,-12.453 7.383,-0.066 c 2.089,-0.02 3.753,-1.715 3.734,-3.801 l 0,-0.023 c -0.016,-2.086 -1.715,-3.754 -3.801,-3.735 l -13.773,0.121 c -2.09,0.02 -3.754,1.715 -3.739,3.801 l 0,0.023 c 0.02,2.09 1.715,3.754 3.805,3.735 l 1.871,-0.016 -2.797,12.551 -69.965,2.215 c -0.66,-0.01 -1.261,-0.02 -1.843,-0.035 0.351,-1.145 0.593,-2.352 0.699,-3.606 0.711,-8.515 -4.91,-15.887 -12.606,-16.535 -7.695,-0.644 -14.468,5.691 -15.179,14.203 -0.137,1.637 -0.039,3.227 0.261,4.738 -7.519,-0.433 -24.433,-0.82 -31.289,3.887 -8.918,6.129 -14.609,10.238 -14.359,16.371 0.012,0.356 0.031,0.657 0.047,0.985 l -27.336,2.371 -0.09,1.074 28.192,4.016 c 0,0 0.003,0.031 0.003,0.031 l 0.461,0.035 8.184,1.168 -0.098,-0.488 5.114,0.429 c 0,0 12.57,23.211 38.746,29.993 26.175,6.777 72.785,-11.473 94.289,-12.727 4.707,-0.277 14.07,-0.578 25.601,-0.875 l 0.731,6.402 -3.719,-0.261 c -1.012,-0.075 -1.867,0.683 -1.922,1.699 l 0,0.01 c -0.051,1.011 0.723,1.882 1.731,1.957 l 17.871,1.258 c 1.011,0.07 1.867,-0.688 1.918,-1.7 l 0,-0.011 c 0.051,-1.012 -0.719,-1.883 -1.731,-1.954 l -4.449,-0.312 1.93,-7.387 c 2.742,-0.062 5.496,-0.125 8.359,-0.187 l 12.551,18.261 -3.024,0.145 c -1.285,0.062 -2.234,1.145 -2.128,2.43 l 0,0.011 c 0.109,1.282 1.226,2.266 2.511,2.204 l 32.481,-1.579 c 1.285,-0.062 2.234,-1.144 2.129,-2.425 l 0,-0.016 c -0.106,-1.281 -1.227,-2.262 -2.512,-2.199 l -19.777,0.957 -6.743,-18.117 c 36.707,-0.743 75.219,-1.34 75.219,-1.34 l 105.981,121.207 0.004,0 z"
       style="fill:#000000;fill-opacity:1;fill-rule:evenodd;stroke:#000000;stroke-width:0.53841603;stroke-linecap:butt;stroke-linejoin:miter;stroke-miterlimit:4;stroke-dasharray:none;stroke-opacity:1"
       id="path41275"
       inkscape:connector-curvature="0" /><path
       inkscape:connector-curvature="0"
       id="path41277"
       style="fill:#000000;fill-opacity:1;fill-rule:nonzero;stroke:none"
       d="m 255.18,1082.344 -57.164,-30.133 -1.008,-13.09 c 0.281,0.242 0.422,0.375 0.722,0.637 0.977,0.847 1.829,1.652 2.79,2.515 2.16,-1.601 4.019,-3.703 5.843,-6.55 3.055,-4.77 4.106,-14.762 2.145,-20.457 l -1.332,-3.891 4.222,-15.617 c 13.754,-50.856 24.348,-105.68 28.172,-145.723 l 0.907,-9.465 -4.09,-2.531 c -2.246,-1.391 -7.18,-3.941 -10.961,-5.668 -10.266,-4.695 -12.969,-6.68 -19.727,-14.5 -3.39,-3.922 -7.371,-7.777 -8.847,-8.562 -2.735,-1.461 -4.079,-1.778 -7.278,-1.145 l 0.996,-8.684 c 0.864,-0.449 1.492,-0.792 1.578,-0.906 0.286,-0.375 1.813,-4.875 3.395,-10 3.121,-10.125 4.484,-12.433 8.242,-13.949 2.231,-0.895 2.875,-0.801 6.789,1.008 4.664,2.152 9.102,2.09 11.367,-0.164 1.567,-1.559 2.204,-1.356 6.079,1.886 9.574,8.02 17.054,9.907 25.156,6.282 l 1.89,7.883 c -0.921,-1.133 -5.984,-2.36 -8.679,-2.047 -2.813,0.324 -7.309,4.996 -7.582,7.875 -0.2,2.062 0.234,2.711 2.64,3.996 1.18,0.629 2.395,1.027 3.614,1.187 2.679,0.352 5.355,-0.426 7.605,-2.285 1.859,-1.535 2.977,-4.101 2.981,-6.32 l 7.625,31.762 c -0.153,0.628 -0.301,1.339 -0.477,2.21 -1.227,6.164 -2.457,31.774 -2.863,59.59 -0.438,29.805 -1.5,50.961 -2.809,55.91 -0.621,2.364 -2.25,7.961 -3.617,12.438 -5.899,19.281 -5.863,55.871 0.086,86.641 1.074,5.566 1.34,6.089 3.344,6.293 l -1.754,33.574 z" /><path
       inkscape:connector-curvature="0"
       id="path41279"
       style="fill:#000000;fill-opacity:1;fill-rule:nonzero;stroke:none"
       d="m 311.512,1064.691 3.586,-47.285 c 1.582,-2.914 3.925,-8.156 5.461,-12.297 4.531,-12.23 8.418,-40.359 10.039,-72.617 0.66,-13.129 1.511,-29.797 1.886,-37.039 0.375,-7.238 0.485,-21.023 0.235,-30.637 -0.621,-24.136 0.297,-33.425 4.492,-45.304 2.867,-8.133 3.207,-9.719 2.766,-13.078 -0.477,-3.661 -0.7,-3.918 -5.254,-6.297 -4.336,-2.258 -6.047,-3.114 -7.067,-2.078 l -8.336,-40.618 c 0.153,-0.066 0.305,-0.121 0.461,-0.187 8.285,-3.715 13.383,-5.426 17.262,-5.793 1.391,-0.133 6.762,0.211 13.367,0.781 3.731,2.715 7.727,5.692 11.567,8.59 l -4.434,-0.586 c -6.445,-0.851 -8.484,-0.082 -8.981,3.375 -0.265,1.844 0.165,3.512 1.305,5.035 1.121,1.5 1.813,2.207 2.805,2.332 0.769,0.098 1.723,-0.152 3.203,-0.668 3.395,-1.179 5.5,-3.582 5.965,-6.797 L 362.199,761 c 1.688,1.273 3.246,2.449 4.746,3.59 -2.234,1.894 -3.418,4.461 -3.906,7.851 -0.934,6.504 2.293,8.188 10.356,5.399 2.359,-0.82 4.734,-1.418 5.285,-1.34 1.429,0.203 -0.946,24.156 -2.957,29.828 -0.828,2.328 -3.27,6.707 -5.426,9.734 -3.586,5.032 -3.996,6.032 -4.692,11.618 -0.421,3.359 -0.589,12.843 -0.375,21.086 0.215,8.238 -0.046,22.007 -0.585,30.593 -1.86,29.707 -0.778,38.879 5.492,46.61 1.718,2.117 1.722,2.164 -0.489,14.914 -2.699,15.555 -2.664,21.379 0.297,48.859 2.43,22.559 2.735,31.223 1.555,44.606 -0.699,7.906 -0.762,9.316 0.32,9.722 l -2.32,25.481 -57.988,-4.86 z" /><path
       inkscape:connector-curvature="0"
       id="path41281"
       style="fill:#000000;fill-opacity:1;fill-rule:nonzero;stroke:none"
       d="m 444.156,1076.055 5.739,-29.91 c 11.773,-30.508 19.082,-44.34 32.628,-63.356 15.379,-21.59 20.629,-32.043 27.961,-55.672 3.465,-11.16 8.36,-40.469 8.954,-53.609 0.476,-10.551 -0.282,-28.867 -1.571,-37.953 -0.625,-4.407 -0.937,-4.965 -3.547,-6.192 -1.574,-0.738 -7.043,-2.113 -12.152,-3.062 -5.106,-0.946 -10.094,-2.281 -11.086,-2.965 -3.105,-2.137 -6.02,-8.578 -8.914,-19.734 -1.836,-7.071 -3.715,-12.172 -5.469,-14.856 -1.554,-2.387 -2.164,-3.492 -4.242,-4.039 l 1.387,-6.012 c 2.824,-0.175 5.789,-0.379 9.082,-0.633 l 15.855,-1.234 2.547,2.043 c 2.27,1.82 3,2 6.734,1.688 5.637,-0.473 10.876,0.367 14.016,2.242 1.426,0.851 5.246,3.847 8.492,6.656 3.094,2.676 5.66,4.492 7.852,5.492 l 3.144,5.02 c -4.878,-1.004 -9.043,-1.617 -10.492,-1.414 -2,0.273 -1.91,0.519 2.86,7.812 7.043,10.762 7.304,12.055 7.128,35.168 -0.082,10.617 1.122,22.953 5.094,52.164 2.594,19.078 2.653,20.235 1.426,28.817 l -1.277,8.941 -7.586,11.336 c -7.461,11.145 -9.91,16.324 -9.34,19.762 0.187,1.121 0.637,1.711 1.359,1.781 0.567,0.047 1.309,-0.238 2.215,-0.84 l -17.629,80.266 -71.172,32.293 0.004,0 z" /><path
       inkscape:connector-curvature="0"
       id="path41283"
       style="fill:#000000;fill-opacity:1;fill-rule:nonzero;stroke:none"
       d="m 506.422,1076.805 69.984,-173.801 c 11.5,-15.856 21.203,-39.18 28.75,-69.285 2.703,-10.785 8.063,-46.239 8.754,-57.895 l 0.481,-8.097 -3.922,-2.457 c -5.313,-3.325 -14.137,-7.137 -22.75,-9.832 -3.535,-1.11 -7.77,-2.192 -11.758,-3.075 l -2.176,-4.59 c 2.188,0.145 3.926,-0.878 5.457,-3.027 1.289,-1.801 1.422,-2.785 1.008,-7.504 -0.332,-3.844 0.027,-8.129 1.234,-14.711 2.161,-11.726 4.922,-17.097 11.11,-21.621 l 4.261,-3.113 -0.253,3.562 c -0.141,1.965 -0.907,5.325 -1.7,7.469 -2.836,7.676 -2.113,11.867 1.977,11.445 2.93,-0.304 4.789,-3.246 7.047,-11.121 1.054,-3.683 2.14,-6.957 2.406,-7.273 0.805,-0.961 3.383,-0.258 11.711,3.199 4.379,1.824 9.754,3.813 11.941,4.418 5.485,1.52 5.454,3.383 -0.113,7.192 -6.539,4.472 -6.445,8.671 0.301,13.355 6.933,4.816 7.25,5.535 6.105,13.988 -0.55,4.059 -1.05,12.039 -1.101,17.731 l -0.008,0.047 -0.23,0.015 0.207,2.711 -0.075,7.578 0.684,0.473 1.094,14.449 c -0.211,-0.09 -0.52,-0.234 -0.567,-0.238 -1.199,-0.176 -2.398,27.476 -2.004,46.141 0.348,16.367 1.696,30.679 3.707,39.277 3.047,13.035 1.789,16.297 -10.554,27.305 -8.739,7.796 -11.008,10.847 -11.715,15.746 -0.617,4.293 -0.059,6.382 2.82,10.461 l 2.055,2.906 -4.637,3.355 c -8.312,6.016 -9.519,13.239 -3.539,21.235 1.676,2.242 3.004,4.414 2.945,4.828 -0.062,0.414 -1.82,3.277 -3.914,6.355 -4.765,7.016 -4.687,8.571 0.727,15.414 4.887,6.176 6.098,9.516 7.828,21.559 1.734,12.051 2.711,15.5 5.336,18.922 l 2.18,2.844 -2.219,4.007 c -1.219,2.203 -2.32,4.735 -2.449,5.633 -0.223,1.543 1.273,6.524 3.3,11.797 l -29.578,37.766 -90.148,-5.543 z" /><path
       d="m 230.055,1097.438 -2.59,30.496 c -1.164,-2.477 -2.36,-4.344 -3.059,-4.493 -0.273,-0.058 -1.195,1.196 -2.054,2.782 -1.239,2.3 -2.137,5.707 -4.418,16.816 -2.25,10.953 -3.372,15.25 -5.254,20.102 -3.039,7.836 -8.18,19.894 -8.594,20.16 -0.094,0.062 -0.234,0.054 -0.414,-0 -1.254,-0.41 -4.356,-3.539 -6.227,-6.41 -2.722,-4.188 -3.867,-8.551 -5.312,-20.278 -1.34,-10.855 -2.582,-15.113 -5.68,-19.461 -3.59,-5.043 -7.117,-6.886 -19.582,-10.246 -11.402,-3.074 -14.234,-4.531 -19.086,-9.847 -1.734,-1.903 -3.269,-3.778 -3.406,-4.16 -0.137,-0.387 -1.567,-2.192 -3.172,-4.004 -2.809,-3.172 -2.992,-3.282 -4.734,-2.805 -3.368,0.918 -6.262,3.363 -11.129,9.398 -5.403,6.704 -7.805,9.004 -10.489,10.043 -1.773,0.688 -1.843,0.664 -2.941,-0.886 -1.726,-2.438 -3.266,-9.821 -3.055,-14.637 0.207,-4.777 3.016,-16.027 4.914,-19.715 0.622,-1.203 3.625,-5.316 6.672,-9.137 l 3.657,-4.586 105.953,20.872 z"
       style="fill:#000000;fill-opacity:1;fill-rule:evenodd;stroke:#000000;stroke-width:1.02689505;stroke-linecap:butt;stroke-linejoin:miter;stroke-miterlimit:4;stroke-dasharray:none;stroke-opacity:1"
       id="path41287"
       inkscape:connector-curvature="0" /><path
       inkscape:connector-curvature="0"
       id="path41289"
       style="fill:#000000;fill-opacity:1;fill-rule:nonzero;stroke:none"
       d="m 645.613,1094.402 10.782,-73.718 33.351,-71.993 c 0.066,0.125 0.121,0.25 0.184,0.375 1.597,-1.054 3.273,-2.07 5.058,-3.039 l 4.926,-2.668 1.5,-3.449 c 2.07,-4.758 5.5,-8.629 10.496,-11.836 l 4.133,-2.652 0.301,-3.5 c 0.676,-7.93 3.687,-12.703 9.785,-15.488 4.211,-1.922 4.164,-1.836 5.496,-10.614 1.324,-8.758 2.93,-11.093 6.996,-10.164 1.293,0.297 3.699,0.235 5.344,-0.136 3.301,-0.743 6.004,-2.536 14.082,-9.352 3.328,-2.809 5.402,-4.109 9.867,-6.195 3.109,-1.453 5.926,-2.539 6.266,-2.414 0.34,0.125 1.941,2.929 3.554,6.23 0.254,0.516 0.496,1.027 0.731,1.535 3.5,7.586 4.84,14.114 5.203,24.887 l 0.148,4.258 -3.277,3.922 c -4.398,5.261 -4.469,6.281 -0.742,10.328 l 2.781,3.023 0.074,4.477 c 0.125,7.656 -0.543,19.89 -1.398,25.414 -2.133,13.781 -8.828,23.769 -20.719,30.918 -2.824,1.695 -3,1.91 -2.262,2.789 0.442,0.523 1.879,2.945 3.196,5.383 l 2.398,4.437 -2.394,3.332 c -1.317,1.832 -3.125,4.231 -4.02,5.332 -2.043,2.52 -2.941,5.688 -2.453,8.637 0.727,2.699 1.508,5.41 2.328,8.125 l -2.234,2.957 c -0.196,-0.148 -0.387,-0.301 -0.582,-0.449 l -3.047,-1.344 -2.707,2.031 c -1.488,1.117 -5.535,4.914 -8.996,8.442 -6.77,6.898 -9.719,9.648 -12.289,11.441 -3.77,2.629 -3.77,2.703 0.293,7.742 2.429,3.016 2.461,3.098 1.8,4.282 -0.789,1.417 -2.394,1.984 -13.754,4.847 -9.562,2.41 -12.238,3.824 -17.511,9.266 -5.035,5.199 -6.856,6.258 -15.379,8.941 -9.094,2.863 -12.938,5.535 -13.813,9.754 l -23.496,5.906 z" /><g
       transform="scale(1,-1)"
       style="font-variant:normal;font-weight:bold;font-size:183.55636597px;font-family:Futura;-inkscape-font-specification:Futura-Bold;writing-mode:lr-tb;fill:#000000;fill-opacity:1;fill-rule:nonzero;stroke:none"
       id="text41291"><path
         d="m 191.45506,-677.09337 -43.3193,0 0,23.1281 39.46462,0 0,30.47035 -39.46462,0 0,54.33269 -35.97705,0 0,-138.4015 79.29635,0 0,30.47036 z"
         style=""
         id="path46282" /><path
         d="m 192.18929,-586.78364 q 0,-4.40536 1.652,-8.26004 1.65201,-4.03824 4.58891,-6.97514 2.93691,-2.9369 6.79159,-4.58891 4.03824,-1.65201 8.44359,-1.65201 4.40536,0 8.26004,1.65201 4.03824,1.65201 6.97514,4.58891 2.9369,2.9369 4.58891,6.97514 1.65201,3.85468 1.65201,8.26004 0,4.40535 -1.65201,8.44359 -1.65201,3.85468 -4.58891,6.79159 -2.9369,2.9369 -6.97514,4.5889 -3.85468,1.65201 -8.26004,1.65201 -4.40535,0 -8.44359,-1.65201 -3.85468,-1.652 -6.79159,-4.5889 -2.9369,-2.93691 -4.58891,-6.79159 -1.652,-4.03824 -1.652,-8.44359 z"
         style=""
         id="path46284" /><path
         d="m 285.98659,-707.56373 0,75.25811 q 0,6.05736 0.36711,12.48183 0.55067,6.24092 2.75335,11.3805 2.38623,5.13957 7.34225,8.44359 4.95603,3.12046 13.95029,3.12046 8.99426,0 13.76673,-3.12046 4.95602,-3.30402 7.34225,-8.44359 2.38623,-5.13958 2.75335,-11.3805 0.55066,-6.42447 0.55066,-12.48183 l 0,-75.25811 35.7935,0 0,80.21413 q 0,32.30592 -14.86807,47.17399 -14.68451,14.86806 -45.33842,14.86806 -30.65392,0 -45.52198,-14.86806 -14.86807,-14.86807 -14.86807,-47.17399 l 0,-80.21413 35.97705,0 z"
         style=""
         id="path46286" /><path
         d="m 383.82212,-586.78364 q 0,-4.40536 1.652,-8.26004 1.65201,-4.03824 4.58891,-6.97514 2.9369,-2.9369 6.79159,-4.58891 4.03824,-1.65201 8.44359,-1.65201 4.40535,0 8.26004,1.65201 4.03824,1.65201 6.97514,4.58891 2.9369,2.9369 4.58891,6.97514 1.652,3.85468 1.652,8.26004 0,4.40535 -1.652,8.44359 -1.65201,3.85468 -4.58891,6.79159 -2.9369,2.9369 -6.97514,4.5889 -3.85469,1.65201 -8.26004,1.65201 -4.40535,0 -8.44359,-1.65201 -3.85469,-1.652 -6.79159,-4.5889 -2.9369,-2.93691 -4.58891,-6.79159 -1.652,-4.03824 -1.652,-8.44359 z"
         style=""
         id="path46288" /><path
         d="m 477.43586,-599.63259 8.26003,0 q 9.36138,0 16.70363,-2.9369 7.34226,-2.9369 12.29828,-8.07648 5.13958,-5.13958 7.70937,-12.11472 2.75334,-7.1587 2.75334,-15.60229 0,-8.26004 -2.75334,-15.41874 -2.75335,-7.15869 -7.89293,-12.29827 -4.95602,-5.13958 -12.29827,-8.07648 -7.34226,-2.9369 -16.52008,-2.9369 l -8.26003,0 0,77.46078 z m -35.97705,-107.93114 53.23134,0 q 14.13384,0 26.43212,5.69025 12.48183,5.69024 21.65965,15.23517 9.36138,9.36138 14.68451,22.02677 5.32314,12.48183 5.32314,26.24856 0,13.58317 -5.32314,26.24856 -5.13958,12.48183 -14.50095,22.02676 -9.17782,9.54493 -21.65965,15.23518 -12.29828,5.69025 -26.61568,5.69025 l -53.23134,0 0,-138.4015 z"
         style=""
         id="path46290" /><path
         d="m 571.41672,-586.78364 q 0,-4.40536 1.65201,-8.26004 1.652,-4.03824 4.58891,-6.97514 2.9369,-2.9369 6.79158,-4.58891 4.03824,-1.65201 8.44359,-1.65201 4.40536,0 8.26004,1.65201 4.03824,1.65201 6.97514,4.58891 2.9369,2.9369 4.58891,6.97514 1.65201,3.85468 1.65201,8.26004 0,4.40535 -1.65201,8.44359 -1.65201,3.85468 -4.58891,6.79159 -2.9369,2.9369 -6.97514,4.5889 -3.85468,1.65201 -8.26004,1.65201 -4.40535,0 -8.44359,-1.65201 -3.85468,-1.652 -6.79158,-4.5889 -2.93691,-2.93691 -4.58891,-6.79159 -1.65201,-4.03824 -1.65201,-8.44359 z"
         style=""
         id="path46292" /></g><g
       transform="scale(1,-1)"
       style="font-variant:normal;font-weight:bold;font-size:113.25908661px;font-family:Futura;-inkscape-font-specification:Futura-Bold;writing-mode:lr-tb;fill:#000000;fill-opacity:1;fill-rule:nonzero;stroke:none"
       id="text41295"><path
         d="m 161.08664,-528.27307 -26.72914,0 0,14.27064 24.3507,0 0,18.80101 -24.3507,0 0,33.52469 -22.19878,0 0,-85.39735 48.92792,0 0,18.80101 z"
         style=""
         id="path46233" /><path
         d="m 166.07004,-519.77864 20.49989,0 0,9.51376 q 3.28452,-5.20991 8.0414,-7.92813 4.75688,-2.83148 11.09939,-2.83148 0.79281,0 1.69888,0 1.01934,0 2.26519,0.22652 l 0,19.59382 q -4.07733,-2.03866 -8.83421,-2.03866 -7.13533,0 -10.75962,4.30384 -3.51103,4.19059 -3.51103,12.34524 l 0,24.917 -20.49989,0 0,-58.10191 z"
         style=""
         id="path46235" /><path
         d="m 256.33753,-499.16548 q -1.01933,-4.30385 -4.19059,-6.90881 -3.17125,-2.60496 -7.70162,-2.60496 -4.75688,0 -7.81487,2.4917 -2.94474,2.4917 -3.73755,7.02207 l 23.44463,0 z m -24.01093,11.8922 q 0,13.25131 12.4585,13.25131 6.68229,0 10.08006,-5.43643 l 19.82034,0 q -6.00273,19.9336 -30.01366,19.9336 -7.36184,0 -13.47783,-2.15193 -6.11599,-2.26518 -10.53309,-6.34251 -4.30385,-4.07732 -6.68229,-9.74028 -2.37844,-5.66295 -2.37844,-12.68502 0,-7.24858 2.26518,-13.02479 2.26518,-5.88947 6.45577,-9.9668 4.19059,-4.07733 10.08006,-6.22925 6.00273,-2.26518 13.47783,-2.26518 7.36184,0 13.25131,2.26518 5.88947,2.15192 9.9668,6.34251 4.07733,4.19059 6.22925,10.30658 2.15192,6.00273 2.15192,13.59109 l 0,2.15192 -43.15171,0 z"
         style=""
         id="path46237" /><path
         d="m 323.7267,-499.16548 q -1.01933,-4.30385 -4.19058,-6.90881 -3.17126,-2.60496 -7.70162,-2.60496 -4.75688,0 -7.81488,2.4917 -2.94473,2.4917 -3.73755,7.02207 l 23.44463,0 z m -24.01092,11.8922 q 0,13.25131 12.4585,13.25131 6.68228,0 10.08006,-5.43643 l 19.82034,0 q -6.00274,19.9336 -30.01366,19.9336 -7.36184,0 -13.47783,-2.15193 -6.11599,-2.26518 -10.5331,-6.34251 -4.30384,-4.07732 -6.68228,-9.74028 -2.37845,-5.66295 -2.37845,-12.68502 0,-7.24858 2.26519,-13.02479 2.26518,-5.88947 6.45576,-9.9668 4.19059,-4.07733 10.08006,-6.22925 6.00273,-2.26518 13.47783,-2.26518 7.36184,0 13.25132,2.26518 5.88947,2.15192 9.9668,6.34251 4.07732,4.19059 6.22925,10.30658 2.15192,6.00273 2.15192,13.59109 l 0,2.15192 -43.15171,0 z"
         style=""
         id="path46239" /><path
         d="m 367.67123,-490.89757 q 0,2.83148 1.01933,5.32318 1.01934,2.37844 2.71822,4.19058 1.81215,1.81215 4.19059,2.83148 2.4917,1.01933 5.32318,1.01933 2.71821,0 5.09666,-1.01933 2.49169,-1.01933 4.19058,-2.83148 1.81215,-1.81214 2.83148,-4.19058 1.13259,-2.37845 1.13259,-5.09666 0,-2.71822 -1.13259,-5.09666 -1.01933,-2.4917 -2.83148,-4.30385 -1.69889,-1.81214 -4.19058,-2.83147 -2.37845,-1.01934 -5.09666,-1.01934 -2.71822,0 -5.20992,1.01934 -2.37844,1.01933 -4.19059,2.83147 -1.69888,1.81215 -2.83148,4.19059 -1.01933,2.26518 -1.01933,4.9834 z m 25.82307,-64.7842 20.61316,0 0,94.00504 -20.61316,0 0,-6.45577 q -6.56902,8.26792 -17.78167,8.26792 -6.34251,0 -11.66569,-2.37844 -5.32317,-2.37844 -9.28724,-6.56903 -3.96407,-4.19059 -6.22925,-9.85354 -2.15193,-5.66295 -2.15193,-12.23198 0,-6.22925 2.03867,-11.77895 2.15192,-5.66295 6.00273,-9.85354 3.85081,-4.19058 9.17399,-6.56902 5.43643,-2.4917 11.8922,-2.4917 10.87287,0 18.00819,7.58835 l 0,-41.67934 z"
         style=""
         id="path46241" /><path
         d="m 441.28961,-491.01083 q 0,2.94474 1.01933,5.43644 1.13259,2.37844 2.83147,4.19058 1.81215,1.81215 4.19059,2.83148 2.4917,1.01933 5.20992,1.01933 2.71822,0 5.09666,-1.01933 2.4917,-1.01933 4.19058,-2.83148 1.81215,-1.81214 2.83148,-4.19058 1.13259,-2.4917 1.13259,-5.32318 0,-2.71822 -1.13259,-5.09666 -1.01933,-2.4917 -2.83148,-4.30385 -1.69888,-1.81214 -4.19058,-2.83147 -2.37844,-1.01933 -5.09666,-1.01933 -2.71822,0 -5.20992,1.01933 -2.37844,1.01933 -4.19059,2.83147 -1.69888,1.81215 -2.83147,4.19059 -1.01933,2.37844 -1.01933,5.09666 z m -21.63249,-0.22652 q 0,-6.45577 2.60496,-12.00546 2.60496,-5.66296 7.24858,-9.74028 4.64362,-4.19059 10.98613,-6.56903 6.45577,-2.37844 14.04413,-2.37844 7.4751,0 13.81761,2.37844 6.45576,2.26518 11.09939,6.45577 4.75688,4.07732 7.36184,9.85354 2.60496,5.66295 2.60496,12.57176 0,6.9088 -2.71822,12.68501 -2.60496,5.66296 -7.24858,9.85354 -4.64363,4.07733 -11.21265,6.34251 -6.45577,2.26519 -14.04413,2.26519 -7.4751,0 -13.81761,-2.26519 -6.34251,-2.26518 -10.98613,-6.45576 -4.53036,-4.19059 -7.13532,-9.9668 -2.60496,-5.88948 -2.60496,-13.0248 z"
         style=""
         id="path46243" /><path
         d="m 495.31421,-519.77864 20.49989,0 0,7.13532 q 8.38118,-8.04139 18.80101,-8.04139 12.91154,0 19.70708,10.87287 6.90881,-10.98613 19.70708,-10.98613 4.07733,0 7.70162,1.24585 3.62429,1.13259 6.22925,3.73755 2.60496,2.4917 4.07733,6.56903 1.58563,4.07732 1.58563,9.85354 l 0,37.71527 -20.4999,0 0,-28.65455 q 0,-4.4171 -0.67955,-7.24858 -0.5663,-2.83147 -1.81215,-4.4171 -1.13259,-1.58563 -2.71822,-2.15192 -1.58562,-0.5663 -3.39777,-0.5663 -9.85354,0 -9.85354,14.3839 l 0,28.65455 -20.4999,0 0,-28.65455 q 0,-4.4171 -0.56629,-7.24858 -0.5663,-2.94473 -1.69889,-4.64362 -1.01933,-1.69889 -2.71821,-2.26518 -1.69889,-0.67956 -3.96407,-0.67956 -1.92541,0 -3.62429,0.5663 -1.69889,0.56629 -3.058,2.26518 -1.24585,1.58563 -2.03866,4.53036 -0.67956,2.83148 -0.67956,7.4751 l 0,28.65455 -20.49989,0 0,-58.10191 z"
         style=""
         id="path46245" /><path
         d="m 134.3575,-452.7245 0,46.43623 q 0,3.73755 0.22652,7.70161 0.33977,3.85081 1.69888,7.02207 1.47237,3.17125 4.53037,5.20992 3.05799,1.9254 8.60769,1.9254 5.54969,0 8.49443,-1.9254 3.05799,-2.03867 4.53036,-5.20992 1.47237,-3.17126 1.69889,-7.02207 0.33978,-3.96406 0.33978,-7.70161 l 0,-46.43623 22.08552,0 0,49.49422 q 0,19.9336 -9.17399,29.10759 -9.06072,9.17398 -27.97499,9.17398 -18.91427,0 -28.08826,-9.17398 -9.17398,-9.17399 -9.17398,-29.10759 l 0,-49.49422 22.19878,0 z"
         style=""
         id="path46247" /><path
         d="m 197.78258,-425.42906 20.49989,0 0,7.36184 q 4.19059,-5.09666 8.49443,-6.79554 4.30385,-1.81215 10.08006,-1.81215 6.11599,0 10.41984,2.03866 4.4171,1.92541 7.4751,5.5497 2.4917,2.94474 3.39777,6.56903 0.90607,3.62429 0.90607,8.26791 l 0,36.92246 -20.49989,0 0,-29.3341 q 0,-4.30385 -0.67956,-6.90881 -0.56629,-2.71821 -2.15192,-4.30384 -1.35911,-1.35911 -3.05799,-1.92541 -1.69889,-0.56629 -3.6243,-0.56629 -5.20991,0 -8.04139,3.17125 -2.71822,3.058 -2.71822,8.83421 l 0,31.03299 -20.49989,0 0,-58.10191 z"
         style=""
         id="path46249" /><path
         d="m 287.59703,-425.42906 0,58.10191 -20.49989,0 0,-58.10191 20.49989,0 z m -21.859,-22.31204 q 0,-2.37844 0.90607,-4.4171 0.90607,-2.15193 2.4917,-3.73755 1.58563,-1.58563 3.62429,-2.4917 2.15192,-0.90608 4.53036,-0.90608 2.37845,0 4.41711,0.90608 2.15192,0.90607 3.73755,2.4917 1.58563,1.58562 2.4917,3.73755 0.90607,2.03866 0.90607,4.4171 0,2.37844 -0.90607,4.53036 -0.90607,2.03867 -2.4917,3.62429 -1.58563,1.58563 -3.73755,2.4917 -2.03866,0.90608 -4.41711,0.90608 -2.37844,0 -4.53036,-0.90608 -2.03866,-0.90607 -3.62429,-2.4917 -1.58563,-1.58562 -2.4917,-3.62429 -0.90607,-2.15192 -0.90607,-4.53036 z"
         style=""
         id="path46251" /><path
         d="m 318.74329,-408.32694 0,40.99979 -20.49989,0 0,-40.99979 -6.79555,0 0,-17.10212 6.79555,0 0,-17.4419 20.49989,0 0,17.4419 11.66569,0 0,17.10212 -11.66569,0 z"
         style=""
         id="path46253" /><path
         d="m 134.3575,-290.4496 5.09666,0 q 5.77621,0 10.30657,-1.81214 4.53037,-1.81215 7.58836,-4.9834 3.17126,-3.17126 4.75689,-7.4751 1.69888,-4.41711 1.69888,-9.62703 0,-5.09665 -1.69888,-9.51376 -1.69889,-4.4171 -4.87015,-7.58836 -3.05799,-3.17125 -7.58835,-4.9834 -4.53037,-1.81214 -10.19332,-1.81214 l -5.09666,0 0,47.79533 z m -22.19878,-66.59634 32.84513,0 q 8.72095,0 16.30931,3.51103 7.70162,3.51103 13.36457,9.4005 5.77622,5.77622 9.06073,13.59109 3.28451,7.70162 3.28451,16.19605 0,8.38118 -3.28451,16.19605 -3.17125,7.70162 -8.94747,13.59109 -5.66295,5.88948 -13.36457,9.40051 -7.58836,3.51103 -16.42257,3.51103 l -32.84513,0 0,-85.39735 z"
         style=""
         id="path46255" /><path
         d="m 235.83764,-309.13735 q -1.01934,-4.30384 -4.19059,-6.9088 -3.17126,-2.60496 -7.70162,-2.60496 -4.75688,0 -7.81488,2.4917 -2.94473,2.4917 -3.73755,7.02206 l 23.44464,0 z m -24.01093,11.89221 q 0,13.25131 12.4585,13.25131 6.68228,0 10.08006,-5.43644 l 19.82034,0 q -6.00273,19.9336 -30.01366,19.9336 -7.36184,0 -13.47783,-2.15192 -6.11599,-2.26518 -10.5331,-6.34251 -4.30384,-4.07733 -6.68228,-9.74028 -2.37844,-5.66295 -2.37844,-12.68502 0,-7.24858 2.26518,-13.02479 2.26518,-5.88948 6.45577,-9.9668 4.19058,-4.07733 10.08005,-6.22925 6.00274,-2.26518 13.47784,-2.26518 7.36184,0 13.25131,2.26518 5.88947,2.15192 9.9668,6.34251 4.07733,4.19058 6.22925,10.30657 2.15192,6.00273 2.15192,13.59109 l 0,2.15193 -43.15171,0 z"
         style=""
         id="path46257" /><path
         d="m 304.5859,-310.94949 q -5.32317,-3.62429 -10.75961,-3.62429 -2.94474,0 -5.54969,1.01933 -2.4917,1.01933 -4.41711,2.94473 -1.9254,1.81215 -3.05799,4.41711 -1.01934,2.4917 -1.01934,5.66295 0,3.058 1.01934,5.66296 1.13259,2.4917 2.94473,4.4171 1.92541,1.81215 4.53037,2.83148 2.60495,1.01933 5.54969,1.01933 5.77621,0 10.75961,-3.96407 l 0,17.4419 q -7.58835,3.28452 -14.3839,3.28452 -6.34251,0 -12.11872,-2.15193 -5.66296,-2.15192 -10.08006,-6.11599 -4.30385,-4.07733 -6.9088,-9.62702 -2.60496,-5.66295 -2.60496,-12.57176 0,-6.9088 2.4917,-12.57176 2.4917,-5.77621 6.79554,-9.85354 4.30385,-4.19058 10.19332,-6.45577 6.00273,-2.37844 12.79828,-2.37844 7.4751,0 13.8176,3.17126 l 0,17.4419 z"
         style=""
         id="path46259" /><path
         d="m 330.74876,-329.7505 0,58.10191 -20.49989,0 0,-58.10191 20.49989,0 z m -21.859,-22.31204 q 0,-2.37844 0.90607,-4.41711 0.90608,-2.15192 2.4917,-3.73755 1.58563,-1.58562 3.62429,-2.4917 2.15193,-0.90607 4.53037,-0.90607 2.37844,0 4.4171,0.90607 2.15192,0.90608 3.73755,2.4917 1.58563,1.58563 2.4917,3.73755 0.90607,2.03867 0.90607,4.41711 0,2.37844 -0.90607,4.53036 -0.90607,2.03867 -2.4917,3.62429 -1.58563,1.58563 -3.73755,2.4917 -2.03866,0.90608 -4.4171,0.90608 -2.37844,0 -4.53037,-0.90608 -2.03866,-0.90607 -3.62429,-2.4917 -1.58562,-1.58562 -2.4917,-3.62429 -0.90607,-2.15192 -0.90607,-4.53036 z"
         style=""
         id="path46261" /><path
         d="m 377.4115,-314.8003 q -5.66295,-2.94474 -11.09939,-2.94474 -2.83148,0 -4.64362,1.13259 -1.69889,1.13259 -1.69889,3.058 0,1.01933 0.22652,1.69888 0.33978,0.5663 1.24585,1.1326 1.01933,0.56629 2.83148,1.01933 1.9254,0.45303 4.9834,1.13259 8.49443,1.69888 12.68501,6.11599 4.19059,4.30384 4.19059,11.09939 0,5.09666 -2.03866,9.17398 -2.03867,4.07733 -5.66296,6.90881 -3.62429,2.71822 -8.72095,4.19059 -5.09666,1.58562 -11.21265,1.58562 -11.77894,0 -23.21811,-6.68228 l 7.4751,-14.49717 q 8.60769,5.88948 16.30931,5.88948 2.83148,0 4.64362,-1.24585 1.81215,-1.24585 1.81215,-3.17126 0,-1.13259 -0.33978,-1.81214 -0.22652,-0.79282 -1.13259,-1.35911 -0.90607,-0.67956 -2.71822,-1.13259 -1.69889,-0.5663 -4.53036,-1.13259 -9.51377,-1.92541 -13.36458,-5.66296 -3.73755,-3.85081 -3.73755,-10.53309 0,-4.87014 1.81215,-8.72095 1.81215,-3.96407 5.20992,-6.68229 3.39777,-2.71822 8.15465,-4.19059 4.87014,-1.47236 10.75962,-1.47236 9.62702,0 18.68774,3.73755 l -6.9088,13.36457 z"
         style=""
         id="path46263" /><path
         d="m 411.04945,-329.7505 0,58.10191 -20.49989,0 0,-58.10191 20.49989,0 z m -21.859,-22.31204 q 0,-2.37844 0.90607,-4.41711 0.90608,-2.15192 2.4917,-3.73755 1.58563,-1.58562 3.62429,-2.4917 2.15193,-0.90607 4.53037,-0.90607 2.37844,0 4.4171,0.90607 2.15192,0.90608 3.73755,2.4917 1.58563,1.58563 2.4917,3.73755 0.90607,2.03867 0.90607,4.41711 0,2.37844 -0.90607,4.53036 -0.90607,2.03867 -2.4917,3.62429 -1.58563,1.58563 -3.73755,2.4917 -2.03866,0.90608 -4.4171,0.90608 -2.37844,0 -4.53037,-0.90608 -2.03866,-0.90607 -3.62429,-2.4917 -1.58562,-1.58562 -2.4917,-3.62429 -0.90607,-2.15192 -0.90607,-4.53036 z"
         style=""
         id="path46265" /><path
         d="m 436.41949,-329.7505 13.81761,29.78714 14.04413,-29.78714 22.87833,0 -30.24018,58.10191 -13.70434,0 -29.9004,-58.10191 23.10485,0 z"
         style=""
         id="path46267" /><path
         d="m 528.2726,-309.13735 q -1.01933,-4.30384 -4.19058,-6.9088 -3.17126,-2.60496 -7.70162,-2.60496 -4.75688,0 -7.81488,2.4917 -2.94474,2.4917 -3.73755,7.02206 l 23.44463,0 z m -24.01092,11.89221 q 0,13.25131 12.4585,13.25131 6.68228,0 10.08005,-5.43644 l 19.82034,0 q -6.00273,19.9336 -30.01365,19.9336 -7.36184,0 -13.47784,-2.15192 -6.11599,-2.26518 -10.53309,-6.34251 -4.30385,-4.07733 -6.68229,-9.74028 -2.37844,-5.66295 -2.37844,-12.68502 0,-7.24858 2.26518,-13.02479 2.26519,-5.88948 6.45577,-9.9668 4.19059,-4.07733 10.08006,-6.22925 6.00273,-2.26518 13.47783,-2.26518 7.36184,0 13.25132,2.26518 5.88947,2.15192 9.9668,6.34251 4.07732,4.19058 6.22925,10.30657 2.15192,6.00273 2.15192,13.59109 l 0,2.15193 -43.15171,0 z"
         style=""
         id="path46269" /><path
         d="m 553.1896,-329.7505 20.4999,0 0,7.36184 q 4.19059,-5.09666 8.49443,-6.79555 4.30385,-1.81214 10.08006,-1.81214 6.11599,0 10.41984,2.03866 4.4171,1.92541 7.4751,5.5497 2.4917,2.94473 3.39777,6.56902 0.90607,3.6243 0.90607,8.26792 l 0,36.92246 -20.49989,0 0,-29.3341 q 0,-4.30385 -0.67956,-6.90881 -0.56629,-2.71822 -2.15192,-4.30384 -1.35911,-1.35911 -3.058,-1.92541 -1.69888,-0.56629 -3.62429,-0.56629 -5.20992,0 -8.04139,3.17125 -2.71822,3.058 -2.71822,8.83421 l 0,31.03299 -20.4999,0 0,-58.10191 z"
         style=""
         id="path46271" /><path
         d="m 664.97634,-309.13735 q -1.01933,-4.30384 -4.19059,-6.9088 -3.17125,-2.60496 -7.70162,-2.60496 -4.75688,0 -7.81487,2.4917 -2.94474,2.4917 -3.73755,7.02206 l 23.44463,0 z m -24.01093,11.89221 q 0,13.25131 12.4585,13.25131 6.68229,0 10.08006,-5.43644 l 19.82034,0 q -6.00273,19.9336 -30.01366,19.9336 -7.36184,0 -13.47783,-2.15192 -6.11599,-2.26518 -10.53309,-6.34251 -4.30385,-4.07733 -6.68229,-9.74028 -2.37844,-5.66295 -2.37844,-12.68502 0,-7.24858 2.26518,-13.02479 2.26518,-5.88948 6.45577,-9.9668 4.19058,-4.07733 10.08006,-6.22925 6.00273,-2.26518 13.47783,-2.26518 7.36184,0 13.25131,2.26518 5.88947,2.15192 9.9668,6.34251 4.07733,4.19058 6.22925,10.30657 2.15192,6.00273 2.15192,13.59109 l 0,2.15193 -43.15171,0 z"
         style=""
         id="path46273" /><path
         d="m 728.40143,-314.8003 q -5.66295,-2.94474 -11.09939,-2.94474 -2.83148,0 -4.64362,1.13259 -1.69889,1.13259 -1.69889,3.058 0,1.01933 0.22652,1.69888 0.33978,0.5663 1.24585,1.1326 1.01933,0.56629 2.83148,1.01933 1.9254,0.45303 4.9834,1.13259 8.49443,1.69888 12.68501,6.11599 4.19059,4.30384 4.19059,11.09939 0,5.09666 -2.03866,9.17398 -2.03867,4.07733 -5.66296,6.90881 -3.62429,2.71822 -8.72095,4.19059 -5.09666,1.58562 -11.21265,1.58562 -11.77894,0 -23.21811,-6.68228 l 7.4751,-14.49717 q 8.60769,5.88948 16.30931,5.88948 2.83147,0 4.64362,-1.24585 1.81215,-1.24585 1.81215,-3.17126 0,-1.13259 -0.33978,-1.81214 -0.22652,-0.79282 -1.13259,-1.35911 -0.90608,-0.67956 -2.71822,-1.13259 -1.69889,-0.5663 -4.53036,-1.13259 -9.51377,-1.92541 -13.36458,-5.66296 -3.73755,-3.85081 -3.73755,-10.53309 0,-4.87014 1.81215,-8.72095 1.81214,-3.96407 5.20992,-6.68229 3.39777,-2.71822 8.15465,-4.19059 4.87014,-1.47236 10.75961,-1.47236 9.62703,0 18.68775,3.73755 l -6.9088,13.36457 z"
         style=""
         id="path46275" /><path
         d="m 780.16083,-314.8003 q -5.66296,-2.94474 -11.09939,-2.94474 -2.83148,0 -4.64362,1.13259 -1.69889,1.13259 -1.69889,3.058 0,1.01933 0.22652,1.69888 0.33978,0.5663 1.24585,1.1326 1.01933,0.56629 2.83148,1.01933 1.9254,0.45303 4.98339,1.13259 8.49444,1.69888 12.68502,6.11599 4.19059,4.30384 4.19059,11.09939 0,5.09666 -2.03866,9.17398 -2.03867,4.07733 -5.66296,6.90881 -3.62429,2.71822 -8.72095,4.19059 -5.09666,1.58562 -11.21265,1.58562 -11.77894,0 -23.21811,-6.68228 l 7.4751,-14.49717 q 8.60769,5.88948 16.30931,5.88948 2.83147,0 4.64362,-1.24585 1.81214,-1.24585 1.81214,-3.17126 0,-1.13259 -0.33977,-1.81214 -0.22652,-0.79282 -1.13259,-1.35911 -0.90608,-0.67956 -2.71822,-1.13259 -1.69889,-0.5663 -4.53036,-1.13259 -9.51377,-1.92541 -13.36458,-5.66296 -3.73755,-3.85081 -3.73755,-10.53309 0,-4.87014 1.81215,-8.72095 1.81214,-3.96407 5.20992,-6.68229 3.39777,-2.71822 8.15465,-4.19059 4.87014,-1.47236 10.75961,-1.47236 9.62703,0 18.68775,3.73755 l -6.9088,13.36457 z"
         style=""
         id="path46277" /><path
         d="m 358.9891,-375.25528 -28.08825,-50.17378 23.78441,0 15.51649,29.78714 15.06346,-29.78714 23.55789,0 -46.66274,87.09624 -22.9916,0 19.82034,-36.92246 z"
         style=""
         id="path46279" /></g><path
       d="m 626.91844,1130.6206 -8.64867,6.6954 -10.42257,-3.332 3.69584,10.2972 -6.38652,8.8783 10.93352,-0.332 6.47266,8.8205 3.06227,-10.5042 10.38682,-3.4291 -9.03962,-6.1565 -0.0537,-10.9376 z"
       style="fill:#ffffff;fill-opacity:1;fill-rule:nonzero;stroke:#ffffff;stroke-width:0.00278125;stroke-linecap:butt;stroke-linejoin:miter;stroke-miterlimit:4;stroke-dasharray:none;stroke-opacity:1"
       id="path41307"
       inkscape:connector-curvature="0" /></g></svg>