<?xml version="1.0" encoding="UTF-8" standalone="no"?>
<!-- Created with Inkscape (http://www.inkscape.org/) -->

<svg
   xmlns:dc="http://purl.org/dc/elements/1.1/"
   xmlns:cc="http://creativecommons.org/ns#"
   xmlns:rdf="http://www.w3.org/1999/02/22-rdf-syntax-ns#"
   xmlns:svg="http://www.w3.org/2000/svg"
   xmlns="http://www.w3.org/2000/svg"
   xmlns:sodipodi="http://sodipodi.sourceforge.net/DTD/sodipodi-0.dtd"
   xmlns:inkscape="http://www.inkscape.org/namespaces/inkscape"
   width="10in"
   height="23in"
   viewBox="0 0 900.00002 2070"
   id="svg4162"
   version="1.1"
   inkscape:version="0.91 r13725"
   sodipodi:docname="BF4.svg">
  <defs
     id="defs4164">
    <filter
       id="filter8055"
       inkscape:label="Roughen"
       inkscape:menu="ABCs"
       inkscape:menu-tooltip="Small-scale roughening to edges and content"
       style="color-interpolation-filters:sRGB">
      <feTurbulence
         id="feTurbulence8057"
         numOctaves="3"
         seed="0"
         type="turbulence"
         baseFrequency="0.04"
         result="result91" />
      <feDisplacementMap
         id="feDisplacementMap8059"
         in2="result91"
         scale="6.6"
         yChannelSelector="G"
         xChannelSelector="R"
         in="SourceGraphic" />
    </filter>
    <clipPath
       clipPathUnits="userSpaceOnUse"
       id="clipPath5871">
      <path
         style="fill:#000000;fill-opacity:1;stroke:none;stroke-opacity:1"
         id="path5873"
         sodipodi:type="arc"
         sodipodi:cx="608.34253"
         sodipodi:cy="244.89238"
         sodipodi:rx="45.513332"
         sodipodi:ry="45.513332"
         sodipodi:start="0"
         sodipodi:end="6.2688387"
         sodipodi:open="true"
         d="m 653.85586,244.89238 a 45.513332,45.513332 0 0 1 -45.35009,45.51304 45.513332,45.513332 0 0 1 -45.6754,-45.18656 45.513332,45.513332 0 0 1 45.02245,-45.83718 45.513332,45.513332 0 0 1 45.99836,44.85776" />
    </clipPath>
  </defs>
  <sodipodi:namedview
     id="base"
     pagecolor="#ffffff"
     bordercolor="#666666"
     borderopacity="1.0"
     inkscape:pageopacity="0.0"
     inkscape:pageshadow="2"
     inkscape:zoom="0.1767767"
     inkscape:cx="210.3728"
     inkscape:cy="1359.0759"
     inkscape:document-units="px"
     inkscape:current-layer="layer1"
     showgrid="false"
     inkscape:window-width="1366"
     inkscape:window-height="692"
     inkscape:window-x="41"
     inkscape:window-y="0"
     inkscape:window-maximized="0"
     showguides="true"
     units="in"
     inkscape:guide-bbox="true">
    <sodipodi:guide
       position="1351.9882,-11.313708"
       orientation="1,0"
       id="guide66169" />
    <sodipodi:guide
       position="1617.8604,2302.3397"
       orientation="1,0"
       id="guide66171" />
    <sodipodi:guide
       position="2426.7905,1499.0664"
       orientation="1,0"
       id="guide66661" />
  </sodipodi:namedview>
  <metadata
     id="metadata4167">
    <rdf:RDF>
      <cc:Work
         rdf:about="">
        <dc:format>image/svg+xml</dc:format>
        <dc:type
           rdf:resource="http://purl.org/dc/dcmitype/StillImage" />
        <dc:title />
      </cc:Work>
    </rdf:RDF>
  </metadata>
  <g
     inkscape:label="Layer 1"
     inkscape:groupmode="layer"
     id="layer1"
     transform="translate(0,1017.6379)">
    <text
       xml:space="preserve"
       style="font-style:normal;font-weight:normal;font-size:12px;line-height:125%;font-family:Sans;letter-spacing:0px;word-spacing:0px;fill:#000000;fill-opacity:1;stroke:none"
       x="118.60526"
       y="722.92017"
       id="text4995"
       sodipodi:linespacing="125%"><tspan
         sodipodi:role="line"
         id="tspan4997"
         x="118.60526"
         y="722.92017" /></text>
    <flowRoot
       xml:space="preserve"
       id="flowRoot4730"
       style="font-style:normal;font-variant:normal;font-weight:500;font-stretch:normal;font-size:40px;line-height:125%;font-family:Futura;-inkscape-font-specification:'Futura, Medium';text-align:start;letter-spacing:0px;word-spacing:0px;writing-mode:lr-tb;text-anchor:start;fill:#000000;fill-opacity:1;stroke:none;stroke-width:1px;stroke-linecap:butt;stroke-linejoin:miter;stroke-opacity:1"
       transform="translate(2003.8825,-342.93971)"><flowRegion
         id="flowRegion4732"><rect
           id="rect4734"
           width="299.00516"
           height="112.12693"
           x="443.45697"
           y="1159.274"
           style="font-style:normal;font-variant:normal;font-weight:500;font-stretch:normal;font-size:40px;line-height:125%;font-family:Futura;-inkscape-font-specification:'Futura, Medium';text-align:start;writing-mode:lr-tb;text-anchor:start" /></flowRegion><flowPara
         id="flowPara4736" /></flowRoot>    <path
       sodipodi:nodetypes="cccccccccsccscccccc"
       inkscape:connector-curvature="0"
       id="path66453"
       d="m 653.27211,455.32672 14.2515,-61.16255 -17.2205,-34.44106 9.501,-36.81631 -18.4082,-21.97101 -9.501,-32.65962 -10.0948,-8.31336 -62.9439,-48.09871 30.2843,-35.62868 c 0,0 14.8453,-19.00195 15.4391,-28.50294 0.5938,-9.50099 -3.5629,-33.25343 -3.5629,-33.25343 l -14.8452,-30.878185 c 0,0 5.9381,-8.31336 7.1257,-20.783399 1.1876,-12.470037 12.47,-38.597724 12.47,-38.597724 l -4.1566,-93.228374 -30.2844,11.876214 -58.7873,252.963608 61.7563,279.68512 z"
       style="fill:#ffffff;fill-rule:evenodd;stroke:#ffffff;stroke-width:1.66267157px;stroke-linecap:butt;stroke-linejoin:miter;stroke-opacity:1" />
    <path
       sodipodi:nodetypes="ccccccc"
       inkscape:connector-curvature="0"
       id="path66455"
       d="m 544.60471,618.03101 11.8762,-8.90716 -1.1876,-65.91306 10.6886,-55.81825 -48.0987,15.43909 2.969,77.19546 z"
       style="fill:#ffffff;fill-rule:evenodd;stroke:#ffffff;stroke-width:1.66267157px;stroke-linecap:butt;stroke-linejoin:miter;stroke-opacity:1" />
    <circle
       r="109.85509"
       cy="-157.48651"
       cx="540.44806"
       id="circle66457"
       style="opacity:1;fill:#ffffff;fill-opacity:1;stroke:none;stroke-width:4;stroke-miterlimit:4;stroke-dasharray:none;stroke-opacity:1" />
    <path
       style="fill:#ffffff;fill-rule:evenodd;stroke:#ffffff;stroke-width:1.66267157px;stroke-linecap:butt;stroke-linejoin:miter;stroke-opacity:1"
       d="m 604.18101,-271.80178 c 0,0 49.6868,-139.57719 47.0703,-265.54161 -5.8784,-283.0045 -117.553,-364.66835 -117.553,-364.66835"
       id="path66463"
       inkscape:connector-curvature="0"
       sodipodi:nodetypes="csc" />
    <path
       sodipodi:nodetypes="csc"
       inkscape:connector-curvature="0"
       id="path66471"
       d="m 310.33261,-326.90747 c 0,0 -42.0859,-85.65913 -39.4694,-211.62355 5.8784,-283.0045 92.3753,-325.83309 92.3753,-325.83309"
       style="fill:#ffffff;fill-rule:evenodd;stroke:#ffffff;stroke-width:1.66267157px;stroke-linecap:butt;stroke-linejoin:miter;stroke-opacity:1" />
    <path
       id="path66473"
       d="m 487.10881,167.24757 -2.8197,0.1656 c -1.8661,0.11074 -4.6725,1.0076 -8.2971,2.65047 -6.6581,3.01778 -10.7897,3.53874 -13.6808,1.72494 l -1.8583,-1.16316 -2.9313,2.23992 c -8.6255,6.58414 -15.0103,7.03942 -18.3408,1.30722 -0.7987,-1.37441 -1.4959,-3.22362 -1.5485,-4.10892 -0.059,-0.98803 -0.2675,-1.49365 -0.6014,-1.5125 l 0,0 c -0.3355,-0.0133 -0.7961,0.45875 -1.3468,1.41886 -1.4331,2.49879 -11.5498,12.41769 -25.7989,25.29104 -25.5582,23.09059 -35.2103,36.39189 -39.9874,55.09441 l -1.5738,6.15802 -0.749,0.54016 -0.025,-0.0971 -0.1692,0.24129 -2.1679,1.57011 c -3.9742,2.88088 -4.8817,3.46947 -5.5206,9.33786 l -27.0016,38.30209 c -0.3713,0.1099 -0.7267,0.20722 -1.102,0.32051 -4.4996,1.14174 -7.8237,3.95965 -15.8236,13.42159 -8.7527,10.35245 -12.0592,12.9419 -16.3781,12.82739 -0.9245,-0.0248 -2.1987,-0.35315 -3.1979,-0.79587 l -55.8074,66.1644 c 2.5069,-0.90082 4.6153,-1.3649 5.2001,-0.98671 0.2288,0.14798 0,1.64458 -0.5005,3.32749 -0.7311,2.43994 -2.4602,5.40403 -8.5384,14.62438 -5.9926,9.09042 -8.1799,12.82435 -10.2238,17.4585 -3.3037,7.4909 -8.0666,19.32949 -7.9658,19.79926 0.024,0.10724 0.1241,0.20148 0.2881,0.28448 1.1458,0.58135 5.4378,0.56138 8.7041,-0.12969 4.7574,-1.00623 8.5509,-3.22372 17.6205,-10.30296 8.3973,-6.55457 12.1833,-8.62767 17.3109,-9.4891 5.9446,-0.99862 9.6415,0.15696 20.5375,6.42811 9.9689,5.73771 12.9229,6.68021 19.9253,6.35966 2.505,-0.11472 4.8499,-0.34719 5.2109,-0.51857 0.3608,-0.17128 2.5852,-0.42971 4.9408,-0.57257 4.1179,-0.24968 4.3162,-0.19759 5.1893,1.32882 1.6882,2.95176 1.9983,6.62919 1.192,14.13462 -0.8954,8.33601 -0.8258,11.57717 0.3061,14.13823 0.7489,1.69466 0.814,1.72759 2.636,1.41524 2.8675,-0.49157 9.0129,-4.51311 12.1828,-7.973 3.1457,-3.4336 8.9614,-13.11347 10.1914,-16.96152 0.4012,-1.2557 1.1645,-6.15598 1.6961,-10.88636 l 0.9687,-8.59961 3.6804,-5.61063 c 3.4883,-5.31515 4.0329,-5.89384 10.3138,-10.96559 0.7105,-0.57374 1.329,-1.12052 2.0274,-1.70336 1.4805,1.18238 2.7411,2.70743 3.9541,4.75716 2.0337,3.43616 2.5216,10.49995 1.0012,14.46231 l -1.0372,2.7081 2.5857,11.10603 c 8.4197,36.16048 14.5191,75.0373 16.2125,103.33574 l 0.4033,6.68736 -2.9422,1.68176 c -1.6179,0.92416 -5.1557,2.59729 -7.8613,3.72001 -7.3483,3.04913 -9.3017,4.38139 -14.2571,9.7196 -2.4865,2.67876 -5.3849,5.29481 -6.4425,5.81228 -1.9645,0.96131 -2.9189,1.14966 -5.1569,0.62301 l 0.4862,6.14001 c 0.5957,0.3379 1.0338,0.59918 1.0911,0.68061 0.1901,0.27045 1.1538,3.4781 2.1391,7.12673 1.9471,7.20964 2.8493,8.87012 5.4594,10.02928 1.5471,0.68714 2.0044,0.63453 4.804,-0.54018 3.3406,-1.40162 6.4662,-1.24577 8.0054,0.39972 1.0624,1.13569 1.5173,1.01032 4.325,-1.17759 7.2733,-5.66738 12.7615,-6.66235 18.6757,-3.39229 5.6015,3.09719 9.0795,4.59845 11.7831,5.08486 0.9683,0.17405 4.7625,0.25075 9.435,0.23768 2.7796,-1.68783 5.7597,-3.54131 8.6285,-5.35136 l -3.1511,0.15114 c -4.5757,0.21776 -5.9617,-0.44099 -6.1076,-2.89895 -0.077,-1.30987 0.3223,-2.45683 1.2136,-3.46072 0.8755,-0.98585 1.4029,-1.44313 2.1067,-1.47289 0.5473,-0.0233 1.2013,0.21054 2.2112,0.65901 2.3143,1.02788 3.6527,2.8384 3.7884,5.12447 l 0.1044,1.79338 c 1.2595,-0.79511 2.4248,-1.53099 3.5436,-2.24351 -1.4574,-1.46186 -2.1367,-3.33381 -2.2796,-5.74389 -0.2745,-4.62149 2.0915,-5.61341 7.5877,-3.17984 1.6098,0.71289 3.2446,1.27632 3.6336,1.25321 1.0165,-0.0604 0.7596,-17.02292 -0.3205,-21.12449 -0.4429,-1.68255 -1.9002,-4.90267 -3.2375,-7.15554 -2.2221,-3.74399 -2.4495,-4.47181 -2.6108,-8.43396 -0.098,-2.38417 0.3434,-9.05609 0.9795,-14.82965 0.6361,-5.77352 1.2623,-15.45859 1.39,-21.5206 0.4422,-20.97238 1.7409,-27.35152 6.601,-32.41059 1.3316,-1.38624 1.3358,-1.41883 0.533,-10.50463 -0.9791,-11.08102 -0.6123,-15.1687 3.0862,-34.294 3.0356,-15.69891 3.7573,-21.76663 3.7164,-31.23661 -0.028,-6.58706 0.019,-6.80628 1.2856,-6.88185 1.173,-0.0697 1.4496,0.39588 2.5424,4.33582 8.5428,30.79898 12.7774,41.73334 22.5398,58.195 9.5293,16.06922 12.6003,23.71685 16.3601,40.74372 1.7756,8.04096 3.4853,28.91419 3.1295,38.17607 -0.2858,7.43763 -1.8951,20.25678 -3.3347,26.56227 -0.6983,3.05742 -0.9533,3.43153 -2.8558,4.13775 -1.1497,0.42682 -5.072,1.07239 -8.7148,1.43686 -3.643,0.36451 -7.2254,1.00874 -7.9622,1.42966 -2.3083,1.3185 -4.7304,5.66883 -7.422,13.33516 -1.7054,4.85765 -3.3245,8.331 -4.714,10.11211 -1.2344,1.58224 -1.7267,2.32481 -3.2194,2.58563 l 0.6194,4.30341 c 1.9749,0.28848 4.0443,0.60555 6.3417,0.97952 l 11.0628,1.80059 1.9086,-1.28562 c 1.7027,-1.14621 2.2254,-1.22909 4.8292,-0.78867 3.9312,0.66496 7.6592,0.38421 9.9752,-0.74903 1.0525,-0.515 3.9127,-2.3935 6.3561,-4.17377 6.3947,-4.65899 9.6528,-5.04658 11.8191,-1.40446 0.7982,1.34196 0.8331,2.03918 0.2665,5.32976 -0.4616,2.68051 -0.4614,5.71058 0,10.40377 0.826,8.36269 2.4491,12.29607 6.5289,15.83806 l 2.8089,2.43797 0.032,-2.51728 c 0.019,-1.386 -0.3219,-3.79139 -0.7526,-5.34416 -1.5415,-5.5574 -0.7875,-8.46014 2.0598,-7.92256 2.0393,0.38502 3.1754,2.56126 4.2962,8.22517 0.5244,2.65013 1.0928,5.01229 1.2604,5.25038 0.5086,0.72326 2.3618,0.38109 8.4124,-1.55925 3.1837,-1.02105 7.075,-2.10145 8.6464,-2.39841 3.9423,-0.74487 4.0306,-2.05506 0.3457,-5.05601 -4.3301,-3.52653 -4.0167,-6.47052 0.9976,-9.36309 5.1519,-2.97201 5.4161,-3.46055 5.11,-9.46389 -0.1474,-2.88332 -0.027,-8.51694 0.2701,-12.51768 l 0,-0.0324 -0.1621,-0.0253 0.3061,-1.89062 0.3925,-5.32614 0.5078,-0.2917 1.6205,-10.08329 c -0.1529,0.0507 -0.3779,0.13119 -0.4105,0.13335 -0.8537,0.0507 -0.07,-19.43824 1.3072,-32.52221 1.2077,-11.47353 2.9975,-21.44575 4.9156,-27.36534 2.9086,-8.9754 2.2166,-11.33994 -5.8051,-19.79926 -5.6783,-5.98826 -7.0928,-8.26551 -7.2995,-11.74706 -0.1807,-3.05303 0.3353,-4.48674 2.5964,-7.18073 l 1.6133,-1.91942 -3.0574,-2.62887 c -5.4853,-4.71622 -5.9068,-9.86016 -1.2352,-15.12135 1.31,-1.47557 2.3691,-2.92412 2.3516,-3.21943 -0.019,-0.29537 -1.0855,-2.40657 -2.3732,-4.69234 -2.9335,-5.20772 -2.7893,-6.29652 1.4153,-10.78193 3.798,-4.05165 4.8449,-6.32658 6.7702,-14.68199 1.9262,-8.35899 2.8144,-10.72493 4.8616,-12.97504 l 1.6961,-1.86901 -1.3216,-2.94214 c -0.7274,-1.61846 -1.3522,-3.46373 -1.39,-4.10175 -0.1163,-1.95947 4.2285,-11.30209 7.3752,-15.85598 0.7992,-1.15661 1.9148,-2.55254 3.0718,-3.88567 1.3434,1.45451 2.7798,2.88718 4.3358,4.29981 l 4.2926,3.89647 0.659,3.83886 c 0.9079,5.29186 3.4066,10.02797 7.6381,14.48034 l 3.5039,3.68398 -0.5618,3.59039 c -1.2744,8.13701 0.5814,13.6781 6.0248,17.98066 3.7575,2.9699 3.7347,2.87052 2.9098,12.02072 -0.8235,9.13292 0.2147,11.8731 4.5303,11.9415 1.3751,0.0218 3.7782,0.67435 5.3405,1.45128 3.1339,1.55859 5.4114,4.031 11.8514,12.87059 2.6548,3.64395 4.4188,5.46133 8.3944,8.65724 2.7679,2.2249 5.3356,4.01134 5.7079,3.96849 0.3724,-0.0427 2.67,-2.46768 5.1064,-5.38735 0.3813,-0.45689 0.75,-0.91026 1.1092,-1.36126 5.3867,-6.76415 8.3412,-13.00048 11.3617,-23.73895 l 1.1956,-4.24578 -2.33,-4.74634 c -3.1235,-6.37198 -2.9454,-7.41795 1.797,-10.56946 l 3.54,-2.35156 1.1775,-4.48346 c 2.0139,-7.66445 4.3501,-20.12939 4.8508,-25.89246 1.2496,-14.38018 -3.0204,-26.06843 -13.2163,-36.18103 -2.4194,-2.39983 -2.5431,-2.65874 -1.5845,-3.35987 0.5709,-0.41753 2.6122,-2.49976 4.5375,-4.62754 l 3.5039,-3.86765 -1.5881,-3.93969 c -0.8734,-2.16612 -2.1009,-5.02279 -2.7261,-6.34886 -1.4328,-3.03861 -1.559,-6.44428 -0.3421,-9.28743 1.3962,-2.53513 2.8467,-5.066 4.3394,-7.59489 l -1.5161,-3.52195 c -0.2323,0.10176 -0.4623,0.20494 -0.695,0.3061 l -3.3959,0.6014 -2.2183,-2.70809 c -1.2217,-1.48832 -4.3586,-6.30191 -6.9683,-10.69909 -5.1064,-8.6039 -7.3954,-12.092 -9.5359,-14.52715 -3.1417,-3.57413 -3.1227,-3.64652 2.2003,-7.71373 3.1833,-2.43224 3.2361,-2.50553 2.8629,-3.86046 -0.4454,-1.61726 -1.9196,-2.58161 -12.6329,-8.25747 -9.0202,-4.77882 -11.3583,-6.85724 -15.3194,-13.62688 -3.7824,-6.46453 -5.354,-7.97809 -13.2595,-12.77335 -8.4387,-5.11879 -11.6448,-8.75076 -11.4842,-13.20551 l -51.1439,-27.05205 c -0.2708,-0.78197 -0.5489,-1.50814 -0.839,-2.12467 -0.9855,-2.09406 -1.5647,-2.51451 -5.5999,-4.06934 -13.0522,-5.02929 -19.3278,-8.39387 -24.4447,-13.10468 -4.0562,-3.7342 -7.9127,-10.30955 -9.2119,-15.70832 l -0.9759,-4.05854 z m -83.8821,242.5212 c 1.4118,-0.0838 1.774,0.30672 3.2914,3.52916 0.938,1.99171 2.4414,6.27046 3.3419,9.5071 2.4632,8.85438 3.538,28.83823 2.7765,51.58685 -0.3099,9.25939 -0.6957,21.01487 -0.857,26.12292 -0.1623,5.10807 -0.8987,14.79576 -1.6386,21.53144 -1.8582,16.91504 -1.7592,23.49292 0.4862,32.08286 1.5366,5.87886 1.6801,7.01294 1.174,9.34507 -0.5523,2.5447 -0.7216,2.71183 -4.0622,4.11253 -5.1807,2.17227 -5.2497,2.14753 -5.9419,-2.10309 -0.7119,-4.3735 -0.9393,-22.44005 -0.533,-42.04012 0.4355,-21.00252 0.2133,-35.93348 -0.5834,-39.45088 -0.3805,-1.68046 -1.3875,-5.66208 -2.2399,-8.84809 -3.673,-13.72743 -2.7361,-39.49761 2.2183,-61.02192 0.9094,-3.95016 1.0961,-4.26647 2.5677,-4.35383 z m 103.2745,66.94586 0,0 c 0.8537,-0.003 2.1531,1.06834 3.9217,3.22306 9.5454,11.62949 16.6354,31.02302 20.9156,57.21908 1.2636,7.73428 2.9422,32.94911 2.7405,41.17585 l -0.1405,5.71506 -2.8989,1.4945 c -3.9259,2.02237 -10.3475,4.18058 -16.5546,5.5674 -6.269,1.4009 -15.5631,2.49078 -17.5125,2.05267 -1.3873,-0.31179 -1.31,-0.47817 2.4704,-5.31892 5.5784,-7.14287 5.8391,-8.03702 7.0763,-24.27913 0.5684,-7.46222 2.1387,-16.05296 6.6477,-36.33586 2.944,-13.24339 3.0537,-14.05205 2.6973,-20.15219 l -0.3709,-6.35608 -4.6599,-8.40873 c -4.5819,-8.26459 -5.9975,-12.04564 -5.3946,-14.42632 0.1961,-0.77475 0.5484,-1.16473 1.0588,-1.17039 z M 388.67431,582.9097 c 1.8964,-0.18106 3.7623,0.43093 5.301,1.79698 1.7442,1.54883 2.4788,4.44251 1.552,6.11122 -0.4495,0.80949 -4.2744,1.61996 -6.2408,1.32161 -1.9747,-0.29992 -5.0251,-3.70128 -5.1461,-5.73665 -0.087,-1.45911 0.2316,-1.9024 1.9591,-2.74772 0.8459,-0.41389 1.7129,-0.66322 2.5748,-0.74544 z"
       style="fill:#000000"
       inkscape:connector-curvature="0" />
    <path
       sodipodi:nodetypes="csccccccccssccsccccscscssccccsccccsscscssscsssscscccscccsssccccccccccccccccccccc"
       inkscape:connector-curvature="0"
       id="path66475"
       d="m 513.55201,227.83537 c 0,0 -32.6074,0.1124 -50.8268,0.61305 -16.7819,0.46119 -52.223,-1.27956 -52.223,-1.27956 -0.2298,2.53637 -4.954,38.34796 -4.5934,40.86905 l 0,18.97781 0.3287,1.07175 c 0.1483,1.47876 0.3935,2.70867 0.741,3.38059 0.5969,1.15444 1.6116,1.89279 2.7814,2.21007 l 0.2087,0.20619 0.2876,-0.0966 c 1.6904,0.27653 3.6178,-0.28217 5.0732,-1.73756 1.0575,-1.05751 1.2201,-2.0742 1.2201,-7.5967 0,-5.52718 0.1647,-6.54926 1.2414,-7.70408 1.3662,-1.4667 2.7714,-1.26287 3.7392,0.54552 1.3839,2.58665 2.5367,20.94811 2.1155,33.69873 -0.1711,5.16359 -0.235,8.29241 -0.1648,10.348 l -0.088,0.64217 0.144,0.35871 c 0.1064,1.46691 0.3145,2.27766 0.6616,2.94891 1.1353,2.19549 2.0583,2.62674 5.6249,2.62674 1.7006,0 3.1897,-0.42889 4.1216,-1.18342 1.5396,-1.24644 1.6152,-2.05478 1.0525,-11.22649 -0.1836,-2.99933 0.021,-3.74045 1.5163,-5.71309 3.2934,-4.32092 6.6211,-3.34826 8.9198,2.60738 1.2673,3.28326 1.4132,12.54266 0.5176,32.86754 -0.4832,10.96364 -0.4287,12.37309 0.5821,15.01945 0.3496,0.91577 0.6927,1.63828 1.0694,2.21006 l 0.069,0.22339 0.092,0.0116 c 0.9112,1.24326 2.0416,1.65595 3.9348,1.65595 2.0479,0 3.2886,-0.99657 4.8905,-3.92402 0.1252,-0.22768 0.2352,-0.5816 0.3393,-0.99012 l 0.1504,-0.21693 -0.029,-0.30712 c 1.0761,-5.30732 0.8759,-20.55507 -0.5541,-28.55047 -1.4107,-7.8868 -1.1461,-22.3483 0.5069,-27.66132 1.0749,-3.45467 2.9819,-5.19621 4.2763,-3.90249 0.508,0.50781 0.7605,10.37035 0.8976,35.13771 0.1566,28.41963 0.021,36.38091 -0.8419,45.59314 -0.8309,8.98508 -0.8912,11.83994 -0.3091,14.64359 0.7687,3.70296 2.4624,6.393 4.6004,7.31105 0.7181,0.3083 2.5208,0.45583 4.0057,0.32648 5.9013,-0.5141 7.2322,-4.79199 5.4231,-17.40779 -0.5334,-3.71937 -1.1362,-12.46563 -1.3403,-19.43529 -0.3968,-13.55313 -0.046,-15.76259 2.5066,-15.76259 1.3282,0 1.3725,0.7207 0.9192,15.24495 -0.2323,7.44397 0.9314,10.38104 4.4739,11.27804 5.1903,1.31427 8.2102,-2.57184 8.0755,-10.391 -0.042,-2.41309 -0.7004,-8.55797 -1.4647,-13.65773 -1.1038,-7.36582 -1.4025,-12.15965 -1.452,-23.31418 -0.058,-13.41086 0,-14.10031 1.2158,-15.32445 1.5968,-1.60202 2.9972,-1.12629 4.0314,1.37027 0.6265,1.51247 0.6376,3.10213 0.052,7.83727 -1.346,10.87351 -0.7405,15.93902 2.5515,17.52378 l 0.086,0.19116 0.2045,-0.06 c 0.8132,0.32706 1.7755,0.46287 2.8996,0.44029 6.5237,-0.13085 7.8717,-4.38284 5.348,-16.87725 -1.5019,-7.4356 -2.7746,-21.54541 -2.2551,-25.00881 0.3031,-2.02187 0.8736,-3.03308 2.3067,-4.09368 1.0466,-0.7748 3.3654,-2.79969 5.1524,-4.49959 1.3778,-1.31063 2.3866,-2.41011 3.1379,-3.71138 l 0.378,-0.20181 -0.021,-0.48541 c 1.5455,-3.22791 1.7354,-7.98155 1.7354,-19.70804 0,0 1.3723,-16.94989 1.5943,-39.65483 l -1.6408,1.69436 z m -20.5247,96.19528 -0.1941,1.6087 -0.3695,3.19591 c 0.096,-1.58041 0.2839,-3.22209 0.5627,-4.80461 z m -0.2663,11.6453 0.9686,2.15207 c -0.1274,-0.13917 -0.2469,-0.28653 -0.3544,-0.45102 -0.2536,-0.38762 -0.4586,-0.9715 -0.6142,-1.70105 z m -45.7199,10.29003 -0.6337,6.11688 c 0.067,-1.81725 0.2749,-3.85261 0.6337,-6.11688 z"
       style="fill:#ffffff" />
    <path
       sodipodi:nodetypes="ccccscccccccccccccscsscsscsscsscscsscsccccccccccccccccccccccccccccscccccccccscccccscccccc"
       inkscape:connector-curvature="0"
       id="path66477"
       d="m 416.76411,-912.34785 c -82.6701,44.55605 -140.1345,198.68311 -139.5963,374.41937 0.3191,78.04176 12.0803,151.49271 32.3182,212.757 -3.4769,7.79544 -3.4289,16.97639 0.721,24.98555 -1.9869,0.5353 -4.9874,1.00344 -9.6611,1.00344 -5.1234,0 -10.0924,-2.90161 -13.993,-6.04341 -13.5295,-23.37785 -50.4538,-38.96839 -91.7393,-38.73506 -26.5269,0.19812 -51.7383,6.95665 -69.6665,18.67582 -16.8731,7.37756 -26.853605,19.37764 -26.735905,32.14608 0.049,2.51214 0.4891,5.01555 1.3152,7.47552 0.343905,16.56232 12.564205,32.23489 33.542405,43.01838 l 23.7743,20.62428 c 4.804,6.46096 11.6054,12.35879 20.0689,17.40284 l 0.2956,0.25655 0.1039,-0.0422 c 18.7984,11.01854 44.4506,17.19698 71.1896,17.1463 15.4776,-0.0585 30.7188,-2.20556 44.5154,-6.27074 2.8078,25.86013 12.0144,50.67545 26.8333,72.32621 l 0,13.10329 c 0,6.267 1.4262,12.186432 3.9716,17.458049 -0.1475,1.923195 -0.2468,3.860324 -0.2468,5.822609 l 0,108.02818 c 0,14.061114 3.8618,27.181455 10.5833,38.374594 -2.0142,5.017473 -3.1337,10.498823 -3.1337,16.253263 l 0,8.0828 c 0,2.71316 0.2593,5.36048 0.7306,7.93342 -9.7314,11.253565 -15.6297,25.923055 -15.6297,42.037645 0,35.59837 28.658,64.25641 64.2564,64.25641 l 6.0466,0 c 2.8272,19.37795 19.4285,34.16271 39.6151,34.16271 l 66.0912,0 c 20.1905,0 36.7927,-14.78906 39.6151,-34.17245 35.3632,-0.27047 63.7531,-28.81746 63.7531,-64.24667 0,-15.27143 -5.2996,-29.24074 -14.1359,-40.238585 0.7109,-3.12849 1.1008,-6.38268 1.1008,-9.73248 l 0,-8.0828 c 0,-4.36029 -0.6472,-8.56339 -1.8315,-12.52848 8.1935,-11.962191 13.0058,-26.441317 13.0058,-42.099377 l 0,-97.191585 -4.3872,-12.541482 5.1179,-2.464794 c 1.7059,-3.152608 3.0198,-6.549446 3.8384,-10.14489 l -11.2035,-13.856677 12.1713,-11.96019 c -0.031,-0.61966 -0.076,-1.23547 -0.1332,-1.84778 1.8825,-3.0989 3.6577,-6.25823 5.3225,-9.47269 l -0.5813,-36.65671 16.302,-6.65068 c 0.8241,-3.93172 1.4967,-7.89199 2.0166,-11.87253 l -0.1006,-0.25329 0.1493,-0.0487 c 0.1522,-0.85184 0.2972,-1.70486 0.4352,-2.55895 1.318,0.38953 2.6509,0.76198 3.9975,1.11711 l 5.824,-2.96072 5.4218,5.67555 c 10.2321,2.06913 20.9781,3.15723 31.8148,3.22142 26.7379,0.0502 52.3888,-6.12822 71.1864,-17.1463 l 0.1104,0.0422 0.2955,-0.25655 c 8.4636,-5.04405 15.2649,-10.94188 20.069,-17.40284 l 23.7742,-20.62428 c 20.9783,-10.78349 33.1985,-26.45606 33.5425,-43.01838 0.825,-2.46004 1.2643,-4.96344 1.3119,-7.47552 0.1184,-12.76807 -9.8608,-24.76807 -26.7326,-32.14608 -17.9282,-11.71917 -43.1396,-18.4777 -69.6666,-18.67582 -41.2854,-0.23333 -78.2097,15.35723 -91.7392,38.73506 -3.9006,3.1418 -8.8696,6.04341 -13.9931,6.04341 -4.045,0 -6.8601,-0.3495 -8.8394,-0.78912 4.2612,-8.05947 4.3525,-17.33445 0.8443,-25.19987 20.2379,-61.26429 31.9959,-134.71524 32.315,-212.757 0.5383,-175.73626 -56.9261,-329.86332 -139.5962,-374.41937 l 0,3.07205 c 77.9335,48.19896 113.363,172.41632 107.2488,376.00409 -8.3796,81.9465 -30.2562,131.58541 -56.7419,167.17319 -10.5196,-3.37706 -22.1545,-0.43847 -29.7917,7.72233 -14.296,-5.96148 -29.3843,-9.93743 -44.8207,-11.81083 0.4651,-2.12216 0.7404,-4.33412 0.7404,-6.62469 0,-4.83876 -1.1153,-9.36514 -3.0493,-13.29163 53.3585,-11.1848 91.5938,-58.20904 91.658,-112.72719 -3e-4,-63.68678 -51.6286,-115.31504 -115.3154,-115.31537 -63.6867,3.3e-4 -115.315,51.62859 -115.3153,115.31537 0.069,56.52613 41.1016,104.66898 96.9026,113.69491 -1.6516,3.69747 -2.6012,7.87672 -2.6012,12.32391 0,2.50356 0.3179,4.91369 0.8703,7.21248 -12.8896,1.92059 -25.5009,5.31269 -37.5725,10.10594 -7.6263,-7.30277 -18.6612,-9.82292 -28.6843,-6.60523 -26.4857,-35.58778 -48.3592,-85.22669 -56.7387,-167.17319 -6.1142,-203.58777 29.312,-327.80513 107.2456,-376.00409 z"
       style="opacity:1;fill:#000000;fill-opacity:1;stroke:none;stroke-opacity:1" />
    <circle
       r="36.259342"
       cy="-502.8313"
       cx="452.65799"
       style="fill:#ffffff;fill-opacity:1;stroke:none;stroke-width:2.22334266;stroke-linecap:round;stroke-linejoin:round;stroke-miterlimit:4;stroke-dasharray:none;stroke-dashoffset:0;stroke-opacity:1"
       id="circle66479" />
    <g
       transform="matrix(1.843802,0,0,1.843802,-197.73039,-978.42691)"
       id="g66481">
      <rect
         ry="3.1915596"
         rx="3.1915596"
         y="468.78577"
         x="45.840935"
         height="5.4842453"
         width="10.523822"
         id="rect66483"
         style="fill:#ffffff;fill-opacity:1;stroke:#ffffff;stroke-width:0.3705571;stroke-linecap:round;stroke-linejoin:round;stroke-miterlimit:4;stroke-dasharray:none;stroke-dashoffset:0;stroke-opacity:1"
         transform="matrix(0.70710678,-0.70710678,0.70710678,0.70710678,0,0)" />
      <rect
         style="fill:#ffffff;fill-opacity:1;stroke:#ffffff;stroke-width:0.3705571;stroke-linecap:round;stroke-linejoin:round;stroke-miterlimit:4;stroke-dasharray:none;stroke-dashoffset:0;stroke-opacity:1"
         id="rect66485"
         width="10.523822"
         height="5.4842453"
         x="-476.78979"
         y="32.840557"
         rx="3.1915596"
         ry="3.1915596"
         transform="matrix(-0.70710678,-0.70710678,0.70710678,-0.70710678,0,0)" />
      <rect
         ry="3.1915596"
         rx="3.1915596"
         y="468.78577"
         x="76.881241"
         height="5.4842453"
         width="10.523822"
         id="rect66487"
         style="fill:#ffffff;fill-opacity:1;stroke:#ffffff;stroke-width:0.3705571;stroke-linecap:round;stroke-linejoin:round;stroke-miterlimit:4;stroke-dasharray:none;stroke-dashoffset:0;stroke-opacity:1"
         transform="matrix(0.70710678,-0.70710678,0.70710678,0.70710678,0,0)" />
      <rect
         style="fill:#ffffff;fill-opacity:1;stroke:#ffffff;stroke-width:0.3705571;stroke-linecap:round;stroke-linejoin:round;stroke-miterlimit:4;stroke-dasharray:none;stroke-dashoffset:0;stroke-opacity:1"
         id="rect66489"
         width="10.523822"
         height="5.4842453"
         x="-476.78979"
         y="63.880878"
         rx="3.1915596"
         ry="3.1915596"
         transform="matrix(-0.70710678,-0.70710678,0.70710678,-0.70710678,0,0)" />
      <rect
         transform="matrix(-0.70710678,-0.70710678,0.70710678,-0.70710678,0,0)"
         ry="3.1915596"
         rx="3.1915596"
         y="94.921188"
         x="-476.78979"
         height="5.4842453"
         width="10.523822"
         id="rect66491"
         style="fill:#ffffff;fill-opacity:1;stroke:#ffffff;stroke-width:0.3705571;stroke-linecap:round;stroke-linejoin:round;stroke-miterlimit:4;stroke-dasharray:none;stroke-dashoffset:0;stroke-opacity:1" />
      <rect
         ry="3.1915596"
         rx="3.1915596"
         y="455.54987"
         x="30.731636"
         height="5.4842453"
         width="10.523822"
         id="rect66493"
         style="fill:#ffffff;fill-opacity:1;stroke:#ffffff;stroke-width:0.3705571;stroke-linecap:round;stroke-linejoin:round;stroke-miterlimit:4;stroke-dasharray:none;stroke-dashoffset:0;stroke-opacity:1"
         transform="matrix(0.70710678,-0.70710678,0.70710678,0.70710678,0,0)" />
      <rect
         style="fill:#ffffff;fill-opacity:1;stroke:#ffffff;stroke-width:0.3705571;stroke-linecap:round;stroke-linejoin:round;stroke-miterlimit:4;stroke-dasharray:none;stroke-dashoffset:0;stroke-opacity:1"
         id="rect66495"
         width="10.523822"
         height="5.4842453"
         x="-463.55389"
         y="17.731255"
         rx="3.1915596"
         ry="3.1915596"
         transform="matrix(-0.70710678,-0.70710678,0.70710678,-0.70710678,0,0)" />
      <rect
         style="fill:#ffffff;fill-opacity:1;stroke:#ffffff;stroke-width:0.3705571;stroke-linecap:round;stroke-linejoin:round;stroke-miterlimit:4;stroke-dasharray:none;stroke-dashoffset:0;stroke-opacity:1"
         id="rect66497"
         width="10.523822"
         height="5.4842453"
         x="61.771957"
         y="455.54987"
         rx="3.1915596"
         ry="3.1915596"
         transform="matrix(0.70710678,-0.70710678,0.70710678,0.70710678,0,0)" />
      <rect
         transform="matrix(-0.70710678,-0.70710678,0.70710678,-0.70710678,0,0)"
         ry="3.1915596"
         rx="3.1915596"
         y="48.771584"
         x="-463.55389"
         height="5.4842453"
         width="10.523822"
         id="rect66499"
         style="fill:#ffffff;fill-opacity:1;stroke:#ffffff;stroke-width:0.3705571;stroke-linecap:round;stroke-linejoin:round;stroke-miterlimit:4;stroke-dasharray:none;stroke-dashoffset:0;stroke-opacity:1" />
      <rect
         style="fill:#ffffff;fill-opacity:1;stroke:#ffffff;stroke-width:0.3705571;stroke-linecap:round;stroke-linejoin:round;stroke-miterlimit:4;stroke-dasharray:none;stroke-dashoffset:0;stroke-opacity:1"
         id="rect66501"
         width="10.523822"
         height="5.4842453"
         x="92.812263"
         y="455.54987"
         rx="3.1915596"
         ry="3.1915596"
         transform="matrix(0.70710678,-0.70710678,0.70710678,0.70710678,0,0)" />
      <rect
         transform="matrix(-0.70710678,-0.70710678,0.70710678,-0.70710678,0,0)"
         ry="3.1915596"
         rx="3.1915596"
         y="79.811897"
         x="-463.55389"
         height="5.4842453"
         width="10.523822"
         id="rect66503"
         style="fill:#ffffff;fill-opacity:1;stroke:#ffffff;stroke-width:0.3705571;stroke-linecap:round;stroke-linejoin:round;stroke-miterlimit:4;stroke-dasharray:none;stroke-dashoffset:0;stroke-opacity:1" />
      <rect
         style="fill:#ffffff;fill-opacity:1;stroke:#ffffff;stroke-width:0.3705571;stroke-linecap:round;stroke-linejoin:round;stroke-miterlimit:4;stroke-dasharray:none;stroke-dashoffset:0;stroke-opacity:1"
         id="rect66505"
         width="10.523822"
         height="5.4842453"
         x="-463.55389"
         y="110.85221"
         rx="3.1915596"
         ry="3.1915596"
         transform="matrix(-0.70710678,-0.70710678,0.70710678,-0.70710678,0,0)" />
      <rect
         ry="3.1915596"
         rx="3.1915596"
         y="442.31393"
         x="14.800607"
         height="5.4842453"
         width="10.523822"
         id="rect66507"
         style="fill:#ffffff;fill-opacity:1;stroke:#ffffff;stroke-width:0.3705571;stroke-linecap:round;stroke-linejoin:round;stroke-miterlimit:4;stroke-dasharray:none;stroke-dashoffset:0;stroke-opacity:1"
         transform="matrix(0.70710678,-0.70710678,0.70710678,0.70710678,0,0)" />
      <rect
         transform="matrix(-0.70710678,-0.70710678,0.70710678,-0.70710678,0,0)"
         ry="3.1915596"
         rx="3.1915596"
         y="32.840557"
         x="-450.31796"
         height="5.4842453"
         width="10.523822"
         id="rect66509"
         style="fill:#ffffff;fill-opacity:1;stroke:#ffffff;stroke-width:0.3705571;stroke-linecap:round;stroke-linejoin:round;stroke-miterlimit:4;stroke-dasharray:none;stroke-dashoffset:0;stroke-opacity:1" />
      <rect
         ry="3.1915596"
         rx="3.1915596"
         y="442.31393"
         x="107.92155"
         height="5.4842453"
         width="10.523822"
         id="rect66511"
         style="fill:#ffffff;fill-opacity:1;stroke:#ffffff;stroke-width:0.3705571;stroke-linecap:round;stroke-linejoin:round;stroke-miterlimit:4;stroke-dasharray:none;stroke-dashoffset:0;stroke-opacity:1"
         transform="matrix(0.70710678,-0.70710678,0.70710678,0.70710678,0,0)" />
      <rect
         style="fill:#ffffff;fill-opacity:1;stroke:#ffffff;stroke-width:0.3705571;stroke-linecap:round;stroke-linejoin:round;stroke-miterlimit:4;stroke-dasharray:none;stroke-dashoffset:0;stroke-opacity:1"
         id="rect66513"
         width="10.523822"
         height="5.4842453"
         x="-450.31796"
         y="94.921188"
         rx="3.1915596"
         ry="3.1915596"
         transform="matrix(-0.70710678,-0.70710678,0.70710678,-0.70710678,0,0)" />
      <rect
         style="fill:#ffffff;fill-opacity:1;stroke:#ffffff;stroke-width:0.3705571;stroke-linecap:round;stroke-linejoin:round;stroke-miterlimit:4;stroke-dasharray:none;stroke-dashoffset:0;stroke-opacity:1"
         id="rect66515"
         width="10.523822"
         height="5.4842453"
         x="30.731636"
         y="429.07803"
         rx="3.1915596"
         ry="3.1915596"
         transform="matrix(0.70710678,-0.70710678,0.70710678,0.70710678,0,0)" />
      <rect
         transform="matrix(-0.70710678,-0.70710678,0.70710678,-0.70710678,0,0)"
         ry="3.1915596"
         rx="3.1915596"
         y="17.731255"
         x="-437.08206"
         height="5.4842453"
         width="10.523822"
         id="rect66517"
         style="fill:#ffffff;fill-opacity:1;stroke:#ffffff;stroke-width:0.3705571;stroke-linecap:round;stroke-linejoin:round;stroke-miterlimit:4;stroke-dasharray:none;stroke-dashoffset:0;stroke-opacity:1" />
      <rect
         ry="3.1915596"
         rx="3.1915596"
         y="429.07803"
         x="92.812271"
         height="5.4842453"
         width="10.523822"
         id="rect66519"
         style="fill:#ffffff;fill-opacity:1;stroke:#ffffff;stroke-width:0.3705571;stroke-linecap:round;stroke-linejoin:round;stroke-miterlimit:4;stroke-dasharray:none;stroke-dashoffset:0;stroke-opacity:1"
         transform="matrix(0.70710678,-0.70710678,0.70710678,0.70710678,0,0)" />
      <rect
         transform="matrix(-0.70710678,-0.70710678,0.70710678,-0.70710678,0,0)"
         ry="3.1915596"
         rx="3.1915596"
         y="110.85221"
         x="-437.08206"
         height="5.4842453"
         width="10.523822"
         id="rect66521"
         style="fill:#ffffff;fill-opacity:1;stroke:#ffffff;stroke-width:0.3705571;stroke-linecap:round;stroke-linejoin:round;stroke-miterlimit:4;stroke-dasharray:none;stroke-dashoffset:0;stroke-opacity:1" />
      <rect
         style="fill:#ffffff;fill-opacity:1;stroke:#ffffff;stroke-width:0.3705571;stroke-linecap:round;stroke-linejoin:round;stroke-miterlimit:4;stroke-dasharray:none;stroke-dashoffset:0;stroke-opacity:1"
         id="rect66523"
         width="10.523822"
         height="5.4842453"
         x="14.800607"
         y="415.8421"
         rx="3.1915596"
         ry="3.1915596"
         transform="matrix(0.70710678,-0.70710678,0.70710678,0.70710678,0,0)" />
      <rect
         style="fill:#ffffff;fill-opacity:1;stroke:#ffffff;stroke-width:0.3705571;stroke-linecap:round;stroke-linejoin:round;stroke-miterlimit:4;stroke-dasharray:none;stroke-dashoffset:0;stroke-opacity:1"
         id="rect66525"
         width="10.523822"
         height="5.4842453"
         x="-423.84613"
         y="32.840557"
         rx="3.1915596"
         ry="3.1915596"
         transform="matrix(-0.70710678,-0.70710678,0.70710678,-0.70710678,0,0)" />
      <rect
         style="fill:#ffffff;fill-opacity:1;stroke:#ffffff;stroke-width:0.3705571;stroke-linecap:round;stroke-linejoin:round;stroke-miterlimit:4;stroke-dasharray:none;stroke-dashoffset:0;stroke-opacity:1"
         id="rect66527"
         width="10.523822"
         height="5.4842453"
         x="107.92155"
         y="415.8421"
         rx="3.1915596"
         ry="3.1915596"
         transform="matrix(0.70710678,-0.70710678,0.70710678,0.70710678,0,0)" />
      <rect
         transform="matrix(-0.70710678,-0.70710678,0.70710678,-0.70710678,0,0)"
         ry="3.1915596"
         rx="3.1915596"
         y="94.921188"
         x="-423.84613"
         height="5.4842453"
         width="10.523822"
         id="rect66529"
         style="fill:#ffffff;fill-opacity:1;stroke:#ffffff;stroke-width:0.3705571;stroke-linecap:round;stroke-linejoin:round;stroke-miterlimit:4;stroke-dasharray:none;stroke-dashoffset:0;stroke-opacity:1" />
      <rect
         ry="3.1915596"
         rx="3.1915596"
         y="402.6062"
         x="30.731636"
         height="5.4842453"
         width="10.523822"
         id="rect66531"
         style="fill:#ffffff;fill-opacity:1;stroke:#ffffff;stroke-width:0.3705571;stroke-linecap:round;stroke-linejoin:round;stroke-miterlimit:4;stroke-dasharray:none;stroke-dashoffset:0;stroke-opacity:1"
         transform="matrix(0.70710678,-0.70710678,0.70710678,0.70710678,0,0)" />
      <rect
         style="fill:#ffffff;fill-opacity:1;stroke:#ffffff;stroke-width:0.3705571;stroke-linecap:round;stroke-linejoin:round;stroke-miterlimit:4;stroke-dasharray:none;stroke-dashoffset:0;stroke-opacity:1"
         id="rect66533"
         width="10.523822"
         height="5.4842453"
         x="-410.61023"
         y="17.731255"
         rx="3.1915596"
         ry="3.1915596"
         transform="matrix(-0.70710678,-0.70710678,0.70710678,-0.70710678,0,0)" />
      <rect
         style="fill:#ffffff;fill-opacity:1;stroke:#ffffff;stroke-width:0.3705571;stroke-linecap:round;stroke-linejoin:round;stroke-miterlimit:4;stroke-dasharray:none;stroke-dashoffset:0;stroke-opacity:1"
         id="rect66535"
         width="10.523822"
         height="5.4842453"
         x="61.771957"
         y="402.6062"
         rx="3.1915596"
         ry="3.1915596"
         transform="matrix(0.70710678,-0.70710678,0.70710678,0.70710678,0,0)" />
      <rect
         transform="matrix(-0.70710678,-0.70710678,0.70710678,-0.70710678,0,0)"
         ry="3.1915596"
         rx="3.1915596"
         y="48.771584"
         x="-410.61023"
         height="5.4842453"
         width="10.523822"
         id="rect66537"
         style="fill:#ffffff;fill-opacity:1;stroke:#ffffff;stroke-width:0.3705571;stroke-linecap:round;stroke-linejoin:round;stroke-miterlimit:4;stroke-dasharray:none;stroke-dashoffset:0;stroke-opacity:1" />
      <rect
         style="fill:#ffffff;fill-opacity:1;stroke:#ffffff;stroke-width:0.3705571;stroke-linecap:round;stroke-linejoin:round;stroke-miterlimit:4;stroke-dasharray:none;stroke-dashoffset:0;stroke-opacity:1"
         id="rect66539"
         width="10.523822"
         height="5.4842453"
         x="92.812271"
         y="402.6062"
         rx="3.1915596"
         ry="3.1915596"
         transform="matrix(0.70710678,-0.70710678,0.70710678,0.70710678,0,0)" />
      <rect
         transform="matrix(-0.70710678,-0.70710678,0.70710678,-0.70710678,0,0)"
         ry="3.1915596"
         rx="3.1915596"
         y="79.811905"
         x="-410.61023"
         height="5.4842453"
         width="10.523822"
         id="rect66541"
         style="fill:#ffffff;fill-opacity:1;stroke:#ffffff;stroke-width:0.3705571;stroke-linecap:round;stroke-linejoin:round;stroke-miterlimit:4;stroke-dasharray:none;stroke-dashoffset:0;stroke-opacity:1" />
      <rect
         style="fill:#ffffff;fill-opacity:1;stroke:#ffffff;stroke-width:0.3705571;stroke-linecap:round;stroke-linejoin:round;stroke-miterlimit:4;stroke-dasharray:none;stroke-dashoffset:0;stroke-opacity:1"
         id="rect66543"
         width="10.523822"
         height="5.4842453"
         x="-410.61023"
         y="110.85221"
         rx="3.1915596"
         ry="3.1915596"
         transform="matrix(-0.70710678,-0.70710678,0.70710678,-0.70710678,0,0)" />
      <rect
         style="fill:#ffffff;fill-opacity:1;stroke:#ffffff;stroke-width:0.3705571;stroke-linecap:round;stroke-linejoin:round;stroke-miterlimit:4;stroke-dasharray:none;stroke-dashoffset:0;stroke-opacity:1"
         id="rect66545"
         width="10.523822"
         height="5.4842453"
         x="45.840931"
         y="389.3703"
         rx="3.1915596"
         ry="3.1915596"
         transform="matrix(0.70710678,-0.70710678,0.70710678,0.70710678,0,0)" />
      <rect
         transform="matrix(-0.70710678,-0.70710678,0.70710678,-0.70710678,0,0)"
         ry="3.1915596"
         rx="3.1915596"
         y="32.840553"
         x="-397.37433"
         height="5.4842453"
         width="10.523822"
         id="rect66547"
         style="fill:#ffffff;fill-opacity:1;stroke:#ffffff;stroke-width:0.3705571;stroke-linecap:round;stroke-linejoin:round;stroke-miterlimit:4;stroke-dasharray:none;stroke-dashoffset:0;stroke-opacity:1" />
      <rect
         style="fill:#ffffff;fill-opacity:1;stroke:#ffffff;stroke-width:0.3705571;stroke-linecap:round;stroke-linejoin:round;stroke-miterlimit:4;stroke-dasharray:none;stroke-dashoffset:0;stroke-opacity:1"
         id="rect66549"
         width="10.523822"
         height="5.4842453"
         x="76.881241"
         y="389.3703"
         rx="3.1915596"
         ry="3.1915596"
         transform="matrix(0.70710678,-0.70710678,0.70710678,0.70710678,0,0)" />
      <rect
         transform="matrix(-0.70710678,-0.70710678,0.70710678,-0.70710678,0,0)"
         ry="3.1915596"
         rx="3.1915596"
         y="63.880875"
         x="-397.37433"
         height="5.4842453"
         width="10.523822"
         id="rect66551"
         style="fill:#ffffff;fill-opacity:1;stroke:#ffffff;stroke-width:0.3705571;stroke-linecap:round;stroke-linejoin:round;stroke-miterlimit:4;stroke-dasharray:none;stroke-dashoffset:0;stroke-opacity:1" />
      <rect
         style="fill:#ffffff;fill-opacity:1;stroke:#ffffff;stroke-width:0.3705571;stroke-linecap:round;stroke-linejoin:round;stroke-miterlimit:4;stroke-dasharray:none;stroke-dashoffset:0;stroke-opacity:1"
         id="rect66553"
         width="10.523822"
         height="5.4842453"
         x="-397.37433"
         y="94.921181"
         rx="3.1915596"
         ry="3.1915596"
         transform="matrix(-0.70710678,-0.70710678,0.70710678,-0.70710678,0,0)" />
      <rect
         ry="3.1915596"
         rx="3.1915596"
         y="376.13437"
         x="61.771957"
         height="5.4842453"
         width="10.523822"
         id="rect66555"
         style="fill:#ffffff;fill-opacity:1;stroke:#ffffff;stroke-width:0.3705571;stroke-linecap:round;stroke-linejoin:round;stroke-miterlimit:4;stroke-dasharray:none;stroke-dashoffset:0;stroke-opacity:1"
         transform="matrix(0.70710678,-0.70710678,0.70710678,0.70710678,0,0)" />
      <rect
         style="fill:#ffffff;fill-opacity:1;stroke:#ffffff;stroke-width:0.3705571;stroke-linecap:round;stroke-linejoin:round;stroke-miterlimit:4;stroke-dasharray:none;stroke-dashoffset:0;stroke-opacity:1"
         id="rect66557"
         width="10.523822"
         height="5.4842453"
         x="60.28973"
         y="482.55838"
         rx="3.1915596"
         ry="3.1915596"
         transform="matrix(0.70710678,-0.70710678,0.70710678,0.70710678,0,0)" />
    </g>
    <circle
       style="opacity:1;fill:#000000;fill-opacity:1;stroke:#ffffff;stroke-width:18.43802071;stroke-miterlimit:4;stroke-dasharray:none;stroke-opacity:1"
       id="circle66559"
       cx="379.42532"
       cy="-160.22104"
       r="37.250427" />
    <circle
       r="37.250427"
       cy="-160.22104"
       cx="542.73346"
       id="circle66561"
       style="opacity:1;fill:#000000;fill-opacity:1;stroke:#ffffff;stroke-width:18.43802071;stroke-miterlimit:4;stroke-dasharray:none;stroke-opacity:1" />
    <path
       sodipodi:nodetypes="cccc"
       inkscape:connector-curvature="0"
       id="path66563"
       d="m 323.77561,-218.91785 134.1016,57.73816 69.8445,-66.11951 z"
       style="fill:#000000;fill-rule:evenodd;stroke:#000000;stroke-width:1.84380209px;stroke-linecap:butt;stroke-linejoin:miter;stroke-opacity:1" />
    <path
       inkscape:connector-curvature="0"
       id="path66565"
       d="m 542.42291,-226.67425 c -37.3904,0 -67.8245,30.43772 -67.8245,67.82816 0,37.39044 30.4341,67.824551 67.8245,67.824551 37.3905,0 67.8282,-30.434111 67.8282,-67.824551 0,-37.39044 -30.4377,-67.82816 -67.8282,-67.82816 z m 0,11.58139 c 31.1322,0 56.2468,25.11459 56.2468,56.24677 0,31.13218 -25.1146,56.24318 -56.2468,56.24318 -31.1321,0 -56.2431,-25.111 -56.2431,-56.24318 0,-31.13218 25.111,-56.24677 56.2431,-56.24677 z"
       style="color:#000000;font-style:normal;font-variant:normal;font-weight:normal;font-stretch:normal;font-size:medium;line-height:normal;font-family:sans-serif;text-indent:0;text-align:start;text-decoration:none;text-decoration-line:none;text-decoration-style:solid;text-decoration-color:#000000;letter-spacing:normal;word-spacing:normal;text-transform:none;direction:ltr;block-progression:tb;writing-mode:lr-tb;baseline-shift:baseline;text-anchor:start;white-space:normal;clip-rule:nonzero;display:inline;overflow:visible;visibility:visible;opacity:1;isolation:auto;mix-blend-mode:normal;color-interpolation:sRGB;color-interpolation-filters:linearRGB;solid-color:#000000;solid-opacity:1;fill:#ffffff;fill-opacity:1;fill-rule:nonzero;stroke:none;stroke-width:6.28048801;stroke-linecap:butt;stroke-linejoin:miter;stroke-miterlimit:4;stroke-dasharray:none;stroke-dashoffset:0;stroke-opacity:1;color-rendering:auto;image-rendering:auto;shape-rendering:auto;text-rendering:auto;enable-background:accumulate" />
    <path
       inkscape:connector-curvature="0"
       id="path66567"
       d="m 542.42651,-247.77713 c -49.0599,0 -88.931,39.86749 -88.931,88.92745 0,49.05992 39.8711,88.931035 88.931,88.931035 49.06,0 88.9275,-39.871115 88.9275,-88.931035 0,-49.05996 -39.8675,-88.92745 -88.9275,-88.92745 z m 0,9.21902 c 44.0777,0 79.7085,35.6308 79.7085,79.70843 0,44.07759 -35.6308,79.712019 -79.7085,79.712019 -44.0776,0 -79.712,-35.634429 -79.712,-79.712019 0,-44.07763 35.6344,-79.70843 79.712,-79.70843 z"
       style="color:#000000;font-style:normal;font-variant:normal;font-weight:normal;font-stretch:normal;font-size:medium;line-height:normal;font-family:sans-serif;text-indent:0;text-align:start;text-decoration:none;text-decoration-line:none;text-decoration-style:solid;text-decoration-color:#000000;letter-spacing:normal;word-spacing:normal;text-transform:none;direction:ltr;block-progression:tb;writing-mode:lr-tb;baseline-shift:baseline;text-anchor:start;white-space:normal;clip-rule:nonzero;display:inline;overflow:visible;visibility:visible;opacity:1;isolation:auto;mix-blend-mode:normal;color-interpolation:sRGB;color-interpolation-filters:linearRGB;solid-color:#000000;solid-opacity:1;fill:#ffffff;fill-opacity:1;fill-rule:nonzero;stroke:none;stroke-width:5;stroke-linecap:butt;stroke-linejoin:miter;stroke-miterlimit:4;stroke-dasharray:none;stroke-dashoffset:0;stroke-opacity:1;color-rendering:auto;image-rendering:auto;shape-rendering:auto;text-rendering:auto;enable-background:accumulate" />
    <path
       style="color:#000000;font-style:normal;font-variant:normal;font-weight:normal;font-stretch:normal;font-size:medium;line-height:normal;font-family:sans-serif;text-indent:0;text-align:start;text-decoration:none;text-decoration-line:none;text-decoration-style:solid;text-decoration-color:#000000;letter-spacing:normal;word-spacing:normal;text-transform:none;direction:ltr;block-progression:tb;writing-mode:lr-tb;baseline-shift:baseline;text-anchor:start;white-space:normal;clip-rule:nonzero;display:inline;overflow:visible;visibility:visible;opacity:1;isolation:auto;mix-blend-mode:normal;color-interpolation:sRGB;color-interpolation-filters:linearRGB;solid-color:#000000;solid-opacity:1;fill:#ffffff;fill-opacity:1;fill-rule:nonzero;stroke:none;stroke-width:5;stroke-linecap:butt;stroke-linejoin:miter;stroke-miterlimit:4;stroke-dasharray:none;stroke-dashoffset:0;stroke-opacity:1;color-rendering:auto;image-rendering:auto;shape-rendering:auto;text-rendering:auto;enable-background:accumulate"
       d="m 542.42701,-267.79923 c -60.1056,0 -108.9536,48.84354 -108.9536,108.94915 0,60.105597 48.848,108.953542 108.9536,108.953542 60.1055,0 108.9491,-48.847945 108.9491,-108.953542 0,-60.10561 -48.8436,-108.94915 -108.9491,-108.94915 z m 0,11.29466 c 54.0015,0 97.6544,43.65294 97.6544,97.65449 0,54.00153 -43.6529,97.658898 -97.6544,97.658898 -54.0016,0 -97.659,-43.657368 -97.659,-97.658898 0,-54.00155 43.6574,-97.65449 97.659,-97.65449 z"
       id="path66569"
       inkscape:connector-curvature="0" />
    <ellipse
       ry="5.9675016"
       rx="6.1436176"
       inkscape:transform-center-y="-1.6829603"
       inkscape:transform-center-x="-6.9306427"
       cy="-105.60302"
       cx="593.50714"
       id="ellipse66571"
       style="opacity:1;fill:#000000;fill-opacity:1;stroke:none;stroke-width:5;stroke-miterlimit:4;stroke-dasharray:none;stroke-opacity:1" />
    <circle
       r="6.0123391"
       cy="-177.30493"
       cx="613.85797"
       id="circle66625"
       style="opacity:1;fill:#000000;fill-opacity:1;stroke:none;stroke-width:5;stroke-miterlimit:4;stroke-dasharray:none;stroke-opacity:1" />
    <ellipse
       style="opacity:1;fill:#000000;fill-opacity:1;stroke:none;stroke-width:5;stroke-miterlimit:4;stroke-dasharray:none;stroke-opacity:1"
       id="ellipse66627"
       cx="591.64069"
       cy="-79.625397"
       inkscape:transform-center-x="-5.1664041"
       inkscape:transform-center-y="-1.2545446"
       rx="4.5797009"
       ry="4.4484167" />
    <circle
       style="opacity:1;fill:#000000;fill-opacity:1;stroke:none;stroke-width:5;stroke-miterlimit:4;stroke-dasharray:none;stroke-opacity:1"
       id="circle66629"
       cx="628.43634"
       cy="-194.62009"
       r="4.4992509" />
    <g
       transform="translate(16.970605,-33.941125)"
       style="font-style:normal;font-variant:normal;font-weight:bold;font-stretch:normal;font-size:150.59487915px;line-height:125%;font-family:Futura;-inkscape-font-specification:'Futura, Bold';text-align:start;letter-spacing:-1.05416405px;word-spacing:0px;writing-mode:lr-tb;text-anchor:start;fill:#000000;fill-opacity:1;stroke:none;stroke-width:1px;stroke-linecap:butt;stroke-linejoin:miter;stroke-opacity:1"
       id="flowRoot66631">
      <path
         d="m 112.27883,838.78646 6.47558,0 q 11.14402,0 15.96305,-2.8613 4.81904,-2.8613 4.81904,-9.18629 0,-6.32498 -4.81904,-9.18629 -4.81903,-2.8613 -15.96305,-2.8613 l -6.47558,0 0,24.09518 z m 0,-46.08203 5.42141,0 q 13.85473,0 13.85473,-10.99343 0,-10.99342 -13.85473,-10.99342 l -5.42141,0 0,21.98685 z m -29.5166,-44.57609 43.9737,0 q 15.66187,0 23.794,7.52975 8.13212,7.52974 8.13212,21.68566 0,8.58391 -3.16249,14.30651 -3.0119,5.57201 -9.33689,9.48748 6.32499,1.20476 10.69224,3.76487 4.51785,2.40952 7.22855,6.0238 2.86131,3.61428 4.06607,8.13212 1.20476,4.51785 1.20476,9.63807 0,7.98153 -2.86131,14.15592 -2.71071,6.17439 -7.83093,10.39105 -4.96963,4.21666 -12.19819,6.32498 -7.22855,2.10833 -16.26424,2.10833 l -47.43739,0 0,-113.54854 z"
         style="font-style:normal;font-variant:normal;font-weight:bold;font-stretch:normal;font-size:150.59487915px;line-height:125%;font-family:Futura;-inkscape-font-specification:'Futura, Bold';text-align:start;letter-spacing:-7.75563574px;writing-mode:lr-tb;text-anchor:start"
         id="path46022" />
      <path
         d="m 203.53226,784.42171 0,77.25517 -27.25767,0 0,-77.25517 27.25767,0 z m -29.06481,-29.66719 q 0,-3.16249 1.20476,-5.8732 1.20476,-2.8613 3.31309,-4.96963 2.10832,-2.10833 4.81903,-3.31309 2.86131,-1.20476 6.0238,-1.20476 3.16249,0 5.8732,1.20476 2.8613,1.20476 4.96963,3.31309 2.10833,2.10833 3.31309,4.96963 1.20476,2.71071 1.20476,5.8732 0,3.16249 -1.20476,6.02379 -1.20476,2.71071 -3.31309,4.81904 -2.10833,2.10833 -4.96963,3.31309 -2.71071,1.20476 -5.8732,1.20476 -3.16249,0 -6.0238,-1.20476 -2.71071,-1.20476 -4.81903,-3.31309 -2.10833,-2.10833 -3.31309,-4.81904 -1.20476,-2.8613 -1.20476,-6.02379 z"
         style="font-style:normal;font-variant:normal;font-weight:bold;font-stretch:normal;font-size:150.59487915px;line-height:125%;font-family:Futura;-inkscape-font-specification:'Futura, Bold';text-align:start;letter-spacing:-7.75563574px;writing-mode:lr-tb;text-anchor:start"
         id="path46024" />
      <path
         d="m 239.70327,822.67281 q 0,3.76487 1.35536,7.07796 1.35535,3.16249 3.61428,5.57201 2.40951,2.40952 5.57201,3.76487 3.31308,1.35536 7.07796,1.35536 3.61427,0 6.77676,-1.35536 3.31309,-1.35535 5.57202,-3.76487 2.40951,-2.40952 3.76487,-5.57201 1.50595,-3.31309 1.50595,-6.92737 0,-3.76487 -1.50595,-6.92736 -1.35536,-3.16249 -3.76487,-5.57201 -2.40952,-2.40952 -5.72261,-3.76487 -3.16249,-1.35536 -6.62617,-1.35536 -3.61428,0 -6.77677,1.50595 -3.1625,1.35536 -5.57201,3.76487 -2.40952,2.25893 -3.91547,5.42142 -1.35536,3.16249 -1.35536,6.77677 z m 61.14153,-38.2511 0,71.98435 q 0,6.47558 -0.75298,11.59581 -0.75297,5.12022 -2.10833,9.03569 -1.80714,4.96963 -5.7226,9.18629 -3.76487,4.36725 -9.18629,7.52974 -5.42142,3.16249 -12.34878,4.96963 -6.77677,1.80714 -14.7583,1.80714 -9.03569,0 -16.56544,-2.25892 -7.52974,-2.25892 -13.25234,-6.32499 -5.57202,-3.91546 -9.18629,-9.33688 -3.61428,-5.27082 -4.81904,-11.5958 l 30.72136,0 q 2.8613,7.68033 12.95116,7.68033 8.5839,0 13.10175,-4.81903 4.66844,-4.81904 4.66844,-13.40295 l 0,-7.37914 q -3.0119,2.8613 -5.8732,4.81903 -2.71071,1.80714 -5.57201,3.0119 -2.8613,1.20476 -6.02379,1.65654 -3.1625,0.60238 -6.92737,0.60238 -8.28272,0 -15.21008,-2.8613 -6.92737,-2.8613 -12.04759,-7.98153 -4.96963,-5.12023 -7.83094,-12.19818 -2.7107,-7.22856 -2.7107,-15.96306 0,-8.8851 3.01189,-16.41484 3.0119,-7.68034 8.13213,-13.25235 5.27082,-5.72261 12.34878,-8.8851 7.22855,-3.31309 15.66187,-3.31309 13.70413,0 23.04101,10.24045 l 0,-8.13212 27.25768,0 z"
         style="font-style:normal;font-variant:normal;font-weight:bold;font-stretch:normal;font-size:150.59487915px;line-height:125%;font-family:Futura;-inkscape-font-specification:'Futura, Bold';text-align:start;letter-spacing:-7.75563574px;writing-mode:lr-tb;text-anchor:start"
         id="path46026" />
      <path
         d="m 422.39838,773.12709 -35.54039,0 0,18.97496 32.3779,0 0,24.99875 -32.3779,0 0,44.57608 -29.5166,0 0,-113.54854 65.05699,0 0,24.99875 z"
         style="font-style:normal;font-variant:normal;font-weight:bold;font-stretch:normal;font-size:150.59487915px;line-height:125%;font-family:Futura;-inkscape-font-specification:'Futura, Bold';text-align:start;letter-spacing:-7.75563574px;writing-mode:lr-tb;text-anchor:start"
         id="path46028" />
      <path
         d="m 429.0881,784.42171 27.25768,0 0,12.64997 q 4.36725,-6.92736 10.69223,-10.54164 6.32499,-3.76487 14.7583,-3.76487 1.05417,0 2.25892,0 1.35536,0 3.0119,0.30119 l 0,26.05291 q -5.42141,-2.71071 -11.7464,-2.71071 -9.48748,0 -14.30651,5.72261 -4.66844,5.57201 -4.66844,16.41484 l 0,33.13087 -27.25768,0 0,-77.25517 z"
         style="font-style:normal;font-variant:normal;font-weight:bold;font-stretch:normal;font-size:150.59487915px;line-height:125%;font-family:Futura;-inkscape-font-specification:'Futura, Bold';text-align:start;letter-spacing:-7.75563574px;writing-mode:lr-tb;text-anchor:start"
         id="path46030" />
      <path
         d="m 518.88737,784.42171 0,77.25517 -27.25767,0 0,-77.25517 27.25767,0 z m -29.06481,-29.66719 q 0,-3.16249 1.20476,-5.8732 1.20476,-2.8613 3.31309,-4.96963 2.10832,-2.10833 4.81903,-3.31309 2.86131,-1.20476 6.0238,-1.20476 3.16249,0 5.8732,1.20476 2.8613,1.20476 4.96963,3.31309 2.10833,2.10833 3.31309,4.96963 1.20476,2.71071 1.20476,5.8732 0,3.16249 -1.20476,6.02379 -1.20476,2.71071 -3.31309,4.81904 -2.10833,2.10833 -4.96963,3.31309 -2.71071,1.20476 -5.8732,1.20476 -3.16249,0 -6.0238,-1.20476 -2.71071,-1.20476 -4.81903,-3.31309 -2.10833,-2.10833 -3.31309,-4.81904 -1.20476,-2.8613 -1.20476,-6.02379 z"
         style="font-style:normal;font-variant:normal;font-weight:bold;font-stretch:normal;font-size:150.59487915px;line-height:125%;font-family:Futura;-inkscape-font-specification:'Futura, Bold';text-align:start;letter-spacing:-7.75563574px;writing-mode:lr-tb;text-anchor:start"
         id="path46032" />
      <path
         d="m 586.2315,811.82998 q -1.35535,-5.72261 -5.57201,-9.18629 -4.21666,-3.46368 -10.24045,-3.46368 -6.32499,0 -10.39105,3.31309 -3.91546,3.31308 -4.96963,9.33688 l 31.17314,0 z m -31.92611,15.81246 q 0,17.6196 16.56543,17.6196 8.8851,0 13.40295,-7.22855 l 26.3541,0 q -7.98153,26.5047 -39.90764,26.5047 -9.78867,0 -17.92079,-2.86131 -8.13213,-3.01189 -14.00533,-8.43331 -5.7226,-5.42142 -8.88509,-12.95116 -3.1625,-7.52974 -3.1625,-16.86663 0,-9.63807 3.0119,-17.31841 3.0119,-7.83093 8.58391,-13.25235 5.57201,-5.42141 13.40294,-8.28271 7.98153,-3.0119 17.92079,-3.0119 9.78867,0 17.61961,3.0119 7.83093,2.8613 13.25235,8.43331 5.42141,5.57201 8.28271,13.70413 2.86131,7.98153 2.86131,18.07139 l 0,2.8613 -57.37665,0 z"
         style="font-style:normal;font-variant:normal;font-weight:bold;font-stretch:normal;font-size:150.59487915px;line-height:125%;font-family:Futura;-inkscape-font-specification:'Futura, Bold';text-align:start;letter-spacing:-7.75563574px;writing-mode:lr-tb;text-anchor:start"
         id="path46034" />
      <path
         d="m 619.36001,784.42171 27.25768,0 0,9.78867 q 5.57201,-6.77677 11.29461,-9.0357 5.72261,-2.40951 13.40295,-2.40951 8.13212,0 13.85473,2.7107 5.8732,2.56012 9.93926,7.37915 3.31309,3.91547 4.51785,8.73451 1.20475,4.81903 1.20475,10.99342 l 0,49.09393 -27.25767,0 0,-39.00407 q 0,-5.72261 -0.90357,-9.18629 -0.75297,-3.61428 -2.8613,-5.7226 -1.80714,-1.80714 -4.06606,-2.56012 -2.25893,-0.75297 -4.81904,-0.75297 -6.92736,0 -10.69223,4.21666 -3.61428,4.06606 -3.61428,11.7464 l 0,41.26299 -27.25768,0 0,-77.25517 z"
         style="font-style:normal;font-variant:normal;font-weight:bold;font-stretch:normal;font-size:150.59487915px;line-height:125%;font-family:Futura;-inkscape-font-specification:'Futura, Bold';text-align:start;letter-spacing:-7.75563574px;writing-mode:lr-tb;text-anchor:start"
         id="path46036" />
      <path
         d="m 736.90873,822.8234 q 0,3.76488 1.35536,7.07796 1.35535,3.1625 3.61427,5.57201 2.40952,2.40952 5.57202,3.76488 3.31308,1.35535 7.07795,1.35535 3.61428,0 6.77677,-1.35535 3.31309,-1.35536 5.57201,-3.76488 2.40952,-2.40951 3.76488,-5.57201 1.50595,-3.16249 1.50595,-6.77677 0,-3.61427 -1.50595,-6.77677 -1.35536,-3.31308 -3.76488,-5.7226 -2.25892,-2.40952 -5.57201,-3.76487 -3.16249,-1.35536 -6.77677,-1.35536 -3.61427,0 -6.92736,1.35536 -3.16249,1.35535 -5.57201,3.76487 -2.25892,2.40952 -3.76487,5.57201 -1.35536,3.0119 -1.35536,6.62617 z m 34.33564,-86.14027 27.40826,0 0,124.99375 -27.40826,0 0,-8.5839 q -8.73451,10.99342 -23.6434,10.99342 -8.43331,0 -15.51127,-3.16249 -7.07796,-3.16249 -12.34878,-8.7345 -5.27082,-5.57201 -8.28272,-13.10176 -2.8613,-7.52974 -2.8613,-16.26425 0,-8.28271 2.7107,-15.66186 2.86131,-7.52975 7.98153,-13.10176 5.12023,-5.57201 12.19819,-8.7345 7.22855,-3.31309 15.81246,-3.31309 14.45711,0 23.94459,10.08986 l 0,-55.41892 z"
         style="font-style:normal;font-variant:normal;font-weight:bold;font-stretch:normal;font-size:150.59487915px;line-height:125%;font-family:Futura;-inkscape-font-specification:'Futura, Bold';text-align:start;letter-spacing:-7.75563574px;writing-mode:lr-tb;text-anchor:start"
         id="path46038" />
    </g>
    <g
       transform="matrix(1.6847572,0,0,1.6847572,45.138005,-1048.9568)"
       id="g66639">
      <g
         transform="matrix(2.2733701,0,0,2.2733701,-33.533042,-1311.4854)"
         style="font-style:normal;font-variant:normal;font-weight:bold;font-stretch:normal;font-size:40px;line-height:125%;font-family:Futura;-inkscape-font-specification:'Futura, Bold';text-align:start;letter-spacing:-2.75151443px;word-spacing:0px;writing-mode:lr-tb;text-anchor:start;fill:#000000;fill-opacity:1;stroke:none;stroke-width:1px;stroke-linecap:butt;stroke-linejoin:miter;stroke-opacity:1"
         id="flowRoot66641">
        <path
           d="m 55.96875,1099.4509 -7.851563,0 -1.875,-10.5664 q -0.546875,-3.0664 -0.820312,-5.3125 -0.136719,-1.1133 -0.234375,-1.8555 -0.09766,-0.7422 -0.136719,-1.1328 -0.09766,0.8008 -0.292969,2.9883 -0.09766,1.1132 -0.234375,2.3437 -0.136718,1.2305 -0.332031,2.5977 l -1.542969,10.9375 -7.929687,0 L 28,1069.2946 l 8.046875,0 1.328125,8.3008 q 0.761719,4.9609 1.054687,7.793 l 0.273438,2.7539 0.253906,-2.3633 q 0.410156,-4.1406 1.054688,-7.8711 l 1.523437,-8.6133 7.011719,0 1.367187,7.2461 q 0.976563,5.0586 1.699219,11.9727 0.214844,-3.1055 0.46875,-5.5078 0.253906,-2.4024 0.566406,-4.3555 l 1.484375,-9.3555 7.949219,0 -6.113281,30.1563 z"
           style="font-style:normal;font-variant:normal;font-weight:800;font-stretch:condensed;font-family:Futura;-inkscape-font-specification:'Futura Ultra-Bold Condensed';letter-spacing:-2.75151443px"
           id="path46004" />
        <path
           d="m 68.510986,1089.1309 q 0,1 0.36,1.88 0.36,0.84 0.96,1.48 0.64,0.64 1.48,1 0.88,0.36 1.88,0.36 0.96,0 1.8,-0.36 0.88,-0.36 1.48,-1 0.64,-0.64 1,-1.48 0.4,-0.84 0.4,-1.8 0,-0.96 -0.4,-1.8 -0.36,-0.88 -1,-1.52 -0.6,-0.64 -1.48,-1 -0.84,-0.36 -1.8,-0.36 -1,0 -1.88,0.36 -0.84,0.36 -1.48,1 -0.6,0.64 -0.96,1.48 -0.36,0.8 -0.36,1.76 z m 9.12,-10.2 7.28,0 0,20.52 -7.28,0 0,-2.28 q -2.32,2.92 -6.28,2.92 -2.24,0 -4.12,-0.8 -1.88,-0.84 -3.28,-2.32 -1.4,-1.48 -2.2,-3.48 -0.76,-2 -0.76,-4.36 0,-2.2 0.76,-4.16 0.76,-2 2.12,-3.48 1.36,-1.48 3.24,-2.32 1.88,-0.88 4.16,-0.88 3.84,0 6.36,2.68 l 0,-2.04 z"
           style="font-style:normal;font-variant:normal;font-weight:bold;font-stretch:normal;font-size:40px;line-height:125%;font-family:Futura;-inkscape-font-specification:'Futura Bold';text-align:start;letter-spacing:-2.75151443px;writing-mode:lr-tb;text-anchor:start"
           id="path46006" />
        <path
           d="m 87.008221,1078.9309 7.24,0 0,2.6 q 1.48,-1.8 3,-2.4 1.52,-0.64 3.559999,-0.64 2.16,0 3.68,0.72 1.56,0.68 2.64,1.96 0.88,1.04 1.2,2.32 0.32,1.28 0.32,2.92 l 0,13.04 -7.24,0 0,-10.36 q 0,-1.52 -0.24,-2.44 -0.2,-0.96 -0.76,-1.52 -0.479999,-0.48 -1.079999,-0.68 -0.6,-0.2 -1.28,-0.2 -1.84,0 -2.84,1.12 -0.96,1.08 -0.96,3.12 l 0,10.96 -7.24,0 0,-20.52 z"
           style="font-style:normal;font-variant:normal;font-weight:bold;font-stretch:normal;font-size:40px;line-height:125%;font-family:Futura;-inkscape-font-specification:'Futura Bold';text-align:start;letter-spacing:-2.75151443px;writing-mode:lr-tb;text-anchor:start"
           id="path46008" />
        <path
           d="m 118.8992,1084.9709 0,14.48 -7.24,0 0,-14.48 -2.4,0 0,-6.04 2.4,0 0,-6.16 7.24,0 0,6.16 4.12,0 0,6.04 -4.12,0 z"
           style="font-style:normal;font-variant:normal;font-weight:bold;font-stretch:normal;font-size:40px;line-height:125%;font-family:Futura;-inkscape-font-specification:'Futura Bold';text-align:start;letter-spacing:-2.75151443px;writing-mode:lr-tb;text-anchor:start"
           id="path46010" />
        <path
           d="m 136.82394,1084.2109 q -2,-1.04 -3.92,-1.04 -1,0 -1.64,0.4 -0.6,0.4 -0.6,1.08 0,0.36 0.08,0.6 0.12,0.2 0.44,0.4 0.36,0.2 1,0.36 0.68,0.16 1.76,0.4 3,0.6 4.48,2.16 1.48,1.52 1.48,3.92 0,1.8 -0.72,3.24 -0.72,1.44 -2,2.44 -1.28,0.96 -3.08,1.48 -1.8,0.56 -3.96,0.56 -4.16,0 -8.2,-2.36 l 2.64,-5.12 q 3.04,2.08 5.76,2.08 1,0 1.64,-0.44 0.64,-0.44 0.64,-1.12 0,-0.4 -0.12,-0.64 -0.08,-0.28 -0.4,-0.48 -0.32,-0.24 -0.96,-0.4 -0.6,-0.2 -1.6,-0.4 -3.36,-0.68 -4.72,-2 -1.32,-1.36 -1.32,-3.72 0,-1.72 0.64,-3.08 0.64,-1.4 1.84,-2.36 1.2,-0.96 2.88,-1.48 1.72,-0.52 3.8,-0.52 3.4,0 6.6,1.32 l -2.44,4.72 z"
           style="font-style:normal;font-variant:normal;font-weight:bold;font-stretch:normal;font-size:40px;line-height:125%;font-family:Futura;-inkscape-font-specification:'Futura Bold';text-align:start;letter-spacing:-2.75151443px;writing-mode:lr-tb;text-anchor:start"
           id="path46012" />
        <path
           d="m 164.77216,1099.4509 -8.14453,0 0,-12.7735 -7.48047,-17.3828 8.4961,0 1.46484,4.4727 q 0.42969,1.3086 0.76172,2.5195 0.35156,1.2109 0.625,2.3242 0.44922,-1.6601 0.78125,-2.8515 0.33203,-1.211 0.58594,-1.9532 l 1.48437,-4.5117 8.4375,0 -7.01172,17.3828 0,12.7735 z"
           style="font-style:normal;font-variant:normal;font-weight:800;font-stretch:condensed;font-family:Futura;-inkscape-font-specification:'Futura Ultra-Bold Condensed';letter-spacing:-2.75151443px"
           id="path46014" />
      </g>
      <g
         transform="matrix(2.2733701,0,0,2.2733701,279.71526,-1311.4854)"
         style="font-style:normal;font-variant:normal;font-weight:bold;font-stretch:normal;font-size:40px;line-height:125%;font-family:Futura;-inkscape-font-specification:'Futura, Bold';text-align:start;letter-spacing:-2.75151443px;word-spacing:0px;writing-mode:lr-tb;text-anchor:start;fill:#000000;fill-opacity:1;stroke:none;stroke-width:1px;stroke-linecap:butt;stroke-linejoin:miter;stroke-opacity:1"
         id="flowRoot66653">
        <path
           d="m 37.32,1089.0909 q 0,1.04 0.36,1.92 0.4,0.84 1,1.48 0.64,0.64 1.48,1 0.88,0.36 1.84,0.36 0.96,0 1.8,-0.36 0.88,-0.36 1.48,-1 0.64,-0.64 1,-1.48 0.4,-0.88 0.4,-1.88 0,-0.96 -0.4,-1.8 -0.36,-0.88 -1,-1.52 -0.6,-0.64 -1.48,-1 -0.84,-0.36 -1.8,-0.36 -0.96,0 -1.84,0.36 -0.84,0.36 -1.48,1 -0.6,0.64 -1,1.48 -0.36,0.84 -0.36,1.8 z m -7.64,-0.08 q 0,-2.28 0.92,-4.24 0.92,-2 2.56,-3.44 1.64,-1.48 3.88,-2.32 2.28,-0.84 4.96,-0.84 2.64,0 4.88,0.84 2.28,0.8 3.92,2.28 1.68,1.44 2.6,3.48 0.92,2 0.92,4.44 0,2.44 -0.96,4.48 -0.92,2 -2.56,3.48 -1.64,1.44 -3.96,2.24 -2.28,0.8 -4.96,0.8 -2.64,0 -4.88,-0.8 -2.24,-0.8 -3.88,-2.28 -1.6,-1.48 -2.52,-3.52 -0.92,-2.08 -0.92,-4.6 z"
           style="font-style:normal;font-variant:normal;font-weight:bold;font-stretch:normal;font-size:40px;line-height:125%;font-family:Futura;-inkscape-font-specification:'Futura Bold';text-align:start;letter-spacing:-2.75151443px;writing-mode:lr-tb;text-anchor:start"
           id="path46017" />
        <path
           d="m 62.937236,1078.9309 0,11.56 q 0,3.8 3.68,3.8 3.68,0 3.68,-3.8 l 0,-11.56 7.24,0 0,12.96 q 0,4.16 -2.76,6.24 -2.72,2.08 -8.16,2.08 -5.44,0 -8.2,-2.08 -2.72,-2.08 -2.72,-6.24 l 0,-12.96 7.24,0 z"
           style="font-style:normal;font-variant:normal;font-weight:bold;font-stretch:normal;font-size:40px;line-height:125%;font-family:Futura;-inkscape-font-specification:'Futura Bold';text-align:start;letter-spacing:-2.75151443px;writing-mode:lr-tb;text-anchor:start"
           id="path46019" />
      </g>
    </g>
  </g>
</svg>
