<?xml version="1.0" encoding="UTF-8" standalone="no"?>
<!-- Created with Inkscape (http://www.inkscape.org/) -->

<svg
   xmlns:dc="http://purl.org/dc/elements/1.1/"
   xmlns:cc="http://creativecommons.org/ns#"
   xmlns:rdf="http://www.w3.org/1999/02/22-rdf-syntax-ns#"
   xmlns:svg="http://www.w3.org/2000/svg"
   xmlns="http://www.w3.org/2000/svg"
   xmlns:sodipodi="http://sodipodi.sourceforge.net/DTD/sodipodi-0.dtd"
   xmlns:inkscape="http://www.inkscape.org/namespaces/inkscape"
   width="210mm"
   height="297mm"
   viewBox="0 0 744.09448819 1052.3622047"
   id="svg83737"
   version="1.1"
   inkscape:version="0.91 r13725"
   sodipodi:docname="PrivateLab.svg">
  <defs
     id="defs83739">
    <clipPath
       id="clipPath88273"
       clipPathUnits="userSpaceOnUse">
      <path
         inkscape:connector-curvature="0"
         id="path88275"
         d="m 0,180.994 172.238,0 L 172.238,0 0,0 0,180.994 Z" />
    </clipPath>
  </defs>
  <sodipodi:namedview
     id="base"
     pagecolor="#ffffff"
     bordercolor="#666666"
     borderopacity="1.0"
     inkscape:pageopacity="0.0"
     inkscape:pageshadow="2"
     inkscape:zoom="0.35"
     inkscape:cx="350.41937"
     inkscape:cy="497.24251"
     inkscape:document-units="px"
     inkscape:current-layer="layer1"
     showgrid="false"
     inkscape:window-width="1366"
     inkscape:window-height="695"
     inkscape:window-x="0"
     inkscape:window-y="1"
     inkscape:window-maximized="1" />
  <metadata
     id="metadata83742">
    <rdf:RDF>
      <cc:Work
         rdf:about="">
        <dc:format>image/svg+xml</dc:format>
        <dc:type
           rdf:resource="http://purl.org/dc/dcmitype/StillImage" />
        <dc:title></dc:title>
      </cc:Work>
    </rdf:RDF>
  </metadata>
  <g
     inkscape:label="Layer 1"
     inkscape:groupmode="layer"
     id="layer1">
    <g
       id="g88277"
       transform="matrix(2.8380157,0,0,-2.8380157,517.1816,804.62158)"
       style="fill:#ccff00">
      <path
         sodipodi:nodetypes="ccccccssccccccsscccccccccccccccccccccccccccccccccssscccccccccccccccccccc"
         d="m 0,0 -16.439,3.057 c -0.401,0.075 -0.838,0.451 -0.973,0.837 l -5.039,11.756 c -0.188,0.363 -0.153,0.933 0.08,1.271 l 9.578,13.96 c 0.229,0.336 0.184,0.847 -0.105,1.136 L -24.861,43.98 c -0.289,0.289 -0.799,0.336 -1.135,0.105 l -14.205,-9.748 c -0.336,-0.231 -0.912,-0.272 -1.278,-0.092 l -11.396,4.665 c -0.387,0.128 -0.84,0.962 -0.84,0.962 l -3.164,17.003 c -0.074,0.401 -0.469,0.729 -0.877,0.729 l -16.92,0 c -0.407,0 -0.803,-0.328 -0.877,-0.729 l -3.163,-17.003 c -0.076,-0.401 -0.452,-0.834 -0.841,-0.962 l -11.397,-4.665 c -0.365,-0.18 -0.942,-0.139 -1.276,0.092 l -14.205,9.748 c -0.336,0.231 -0.848,0.184 -1.135,-0.105 l -11.964,-11.963 c -0.287,-0.289 -0.336,-0.8 -0.105,-1.136 l 9.579,-13.96 c 0.23,-0.338 0.267,-0.908 0.08,-1.271 l -5.041,-11.756 c -0.133,-0.386 -0.57,-0.762 -0.973,-0.837 L -132.432,0 c -0.401,-0.076 -0.729,-0.47 -0.729,-0.878 l 0.001,-16.919 c 0,-0.408 0.328,-0.805 0.729,-0.878 l 16.035,-2.984 c 0.401,-0.073 0.831,-0.454 0.953,-0.843 l 7.49655,-20.157628 c 0.18,-0.367 0.138,-0.941 -0.095,-1.277 l -3.76895,-8.824798 c -0.23,-0.336 -0.183,-0.847 0.105,-1.136 l 7.69476,0.138831 c 0.287,-0.287 1.135,-0.106 1.135,-0.106 l 9.47964,0.05159 c 0.335,0.23 0.898,0.248 1.25,0.042 l 6.127527,-0.427308 0.944,0.348 16.995484,39.886825 c 0.158,0.377 0,0.859 -0.347,1.072 l -1.439,0.88 c -0.266,0.163 -0.627,0.442 -0.91,0.698 -5.191,3.3240001 -7.195489,3.4459832 -7.034287,10.0660208 0.177968,7.3085422 1.79418,12.4821162 12.12718,12.4821162 10.333,0 11.947212,-5.3515421 11.769244,-11.5922757 -0.188764,-6.619309 0.116362,-5.6742116 -5.075638,-8.9982116 -0.281,-0.256 -0.642,-0.535 -0.908,-0.6979997 l -1.439,-0.88 c -0.346,-0.213 0,0 -0.348,-1.072 l 14.766411,-41.466943 c 0.156,-0.377 0.58,-0.533 0.945,-0.348 L -40.285,-53.771 c 0.351,0.206 0.914,0.188 1.25,-0.042 l 6.276212,-0.05159 c 0.336,-0.228 0.848,-0.181 1.135,0.106 l 11.253128,0.217105 c 0.289,0.289 0.335,0.8 0.105,1.136 l -3.591989,9.53667 c -0.231,0.336 -0.274,0.91 -0.094,1.277 L -16.988,-22.502 c 0.123,0.389 0.549,0.77 0.951,0.843 l 16.035,2.984 c 0.4,0.073 0.729,0.47 0.729,0.878 L 0.729,-0.878 C 0.729,-0.47 0.4,-0.076 0,0"
         style="fill:#ccff00;fill-opacity:1;fill-rule:nonzero;stroke:none"
         id="path88279"
         inkscape:connector-curvature="0" />
    </g>
    <path
       style="fill:none;fill-rule:evenodd;stroke:#000000;stroke-width:10;stroke-linecap:butt;stroke-linejoin:miter;stroke-opacity:1;stroke-miterlimit:4;stroke-dasharray:none"
       d="m 561.42857,520.93363 -365.71428,0 140,-382.85714 0,-115.714286 -28.57143,-37.142857 130,0 -24.28572,25.714286 0,127.142857 z"
       id="path87677"
       inkscape:connector-curvature="0"
       sodipodi:nodetypes="ccccccccc" />
    <path
       style="fill:none;fill-rule:evenodd;stroke:#000000;stroke-width:10;stroke-linecap:butt;stroke-linejoin:miter;stroke-miterlimit:4;stroke-dasharray:none;stroke-opacity:1"
       d="m 455.59678,475.34241 -60.20899,-164.65235 0,-7.67968 a 47.887367,47.887367 0 0 0 29.19532,-49.10743 47.887367,47.887367 0 0 0 -52.58008,-42.67773 47.887367,47.887367 0 0 0 -42.68164,52.57812 l 0.002,0.008 a 47.887367,47.887367 0 0 0 32.88867,40.57031 l 0,6.30859 -63.89648,164.65235 157.28125,0 z"
       id="path87679"
       inkscape:connector-curvature="0" />
    <path
       sodipodi:nodetypes="ccccccccc"
       inkscape:connector-curvature="0"
       id="path88231"
       d="m 961.42857,520.93363 -365.71428,0 140,-382.85714 0,-115.714286 -28.57143,-37.142857 130,0 -24.28572,25.714286 0,127.142857 z"
       style="fill:none;fill-rule:evenodd;stroke:#000000;stroke-width:10;stroke-linecap:butt;stroke-linejoin:miter;stroke-miterlimit:4;stroke-dasharray:none;stroke-opacity:1" />
    <path
       inkscape:connector-curvature="0"
       id="path88233"
       d="m 855.59678,520.93345 -60.20899,-164.65235 0,-7.67968 a 47.887367,47.887367 0 0 0 29.19532,-49.10743 47.887367,47.887367 0 0 0 -52.58008,-42.67773 47.887367,47.887367 0 0 0 -42.68164,52.57812 l 0.002,0.008 a 47.887367,47.887367 0 0 0 32.88867,40.57031 l 0,6.30859 -63.89648,164.65235 157.28125,0 z"
       style="fill:none;fill-rule:evenodd;stroke:#000000;stroke-width:10;stroke-linecap:butt;stroke-linejoin:miter;stroke-miterlimit:4;stroke-dasharray:none;stroke-opacity:1" />
    <path
       style="fill:none;fill-rule:evenodd;stroke:#000000;stroke-width:7.06898451;stroke-linecap:round;stroke-linejoin:round;stroke-miterlimit:4;stroke-dasharray:none;stroke-opacity:1;stroke-dashoffset:0"
       d="m 280.95861,578.04033 20.1963,26.25598 -6.06092,86.34296 -92.90486,266.09569 73.3131,0 44.38411,-114.37123 0,-4.45954 c -12.73938,-4.12064 -21.85296,-15.36282 -23.24895,-28.67908 l -10e-4,-0.007 c -1.93136,-18.595 11.57668,-35.23511 30.17159,-37.16737 18.59454,-1.93225 35.23511,11.57441 37.16878,30.1688 1.5322,14.85718 -6.85382,28.96272 -20.63812,34.71394 l 0,5.42877 41.82298,114.37264 75.55115,0 -96.94428,-267.10585 -8.08122,-93.41237 17.16852,-18.17641 -91.8968,0 z"
       id="path88235"
       inkscape:connector-curvature="0"
       sodipodi:nodetypes="cccccccccscccccccccc" />
  </g>
</svg>
